<?xml version="1.0" encoding="UTF-8"?>
<svg width="30px" height="30px" viewBox="0 0 30 30" version="1.1" xmlns="http://www.w3.org/2000/svg" xmlns:xlink="http://www.w3.org/1999/xlink">
    <g id="Icons" stroke="none" stroke-width="1" fill="none" fill-rule="evenodd">
        <g id="add-solid" fill="#050505">
            <path d="M15,30 C23.2842712,30 30,23.2842712 30,15 C30,6.71572875 23.2842712,0 15,0 C6.71572875,0 0,6.71572875 0,15 C0,23.2842712 6.71572875,30 15,30 Z M15.7883085,14 L15.7883085,8.00087166 C15.7883085,7.44463086 15.3405933,7 14.7883085,7 C14.2321733,7 13.7883085,7.4481055 13.7883085,8.00087166 L13.7883085,14 L7.78918017,14 C7.23293937,14 6.78830851,14.4477153 6.78830851,15 C6.78830851,15.5561352 7.23641402,16 7.78918017,16 L13.7883085,16 L13.7883085,21.9991283 C13.7883085,22.5553691 14.2360238,23 14.7883085,23 C15.3444437,23 15.7883085,22.5518945 15.7883085,21.9991283 L15.7883085,16 L21.7874369,16 C22.3436777,16 22.7883085,15.5522847 22.7883085,15 C22.7883085,14.4438648 22.340203,14 21.7874369,14 L15.7883085,14 L15.7883085,14 Z" id="Oval-15"></path>
        </g>
    </g>
</svg>
