<?xml version="1.0" encoding="UTF-8"?>
<svg width="30px" height="30px" viewBox="0 0 30 30" version="1.1" xmlns="http://www.w3.org/2000/svg" xmlns:xlink="http://www.w3.org/1999/xlink">
    <!-- Generator: Sketch 42 (36781) - http://www.bohemiancoding.com/sketch -->
    <title>add</title>
    <desc>Created with Sketch.</desc>
    <defs></defs>
    <g id="Icons" stroke="none" stroke-width="1" fill="none" fill-rule="evenodd">
        <g id="add" fill="#050505">
            <path d="M15,30 C6.71572875,30 0,23.2842712 0,15 C0,6.71572875 6.71572875,0 15,0 C23.2842712,0 30,6.71572875 30,15 C30,23.2842712 23.2842712,30 15,30 Z M15,28 C22.1797017,28 28,22.1797017 28,15 C28,7.82029825 22.1797017,2 15,2 C7.82029825,2 2,7.82029825 2,15 C2,22.1797017 7.82029825,28 15,28 Z M15.7883085,14 L21.7874369,14 C22.340203,14 22.7883085,14.4438648 22.7883085,15 C22.7883085,15.5522847 22.3436777,16 21.7874369,16 L15.7883085,16 L15.7883085,21.9991283 C15.7883085,22.5518945 15.3444437,23 14.7883085,23 C14.2360238,23 13.7883085,22.5553691 13.7883085,21.9991283 L13.7883085,16 L7.78918017,16 C7.23641402,16 6.78830851,15.5561352 6.78830851,15 C6.78830851,14.4477153 7.23293937,14 7.78918017,14 L13.7883085,14 L13.7883085,8.00087166 C13.7883085,7.4481055 14.2321733,7 14.7883085,7 C15.3405933,7 15.7883085,7.44463086 15.7883085,8.00087166 L15.7883085,14 Z" id="Oval-15"></path>
        </g>
    </g>
</svg>