<?xml version="1.0" encoding="UTF-8"?>
<svg width="30px" height="30px" viewBox="0 0 30 30" version="1.1" xmlns="http://www.w3.org/2000/svg" xmlns:xlink="http://www.w3.org/1999/xlink">
  <path d="M13.52,18.22 C13.52,18.7133358 13.5899993,19.1699979 13.73,19.59 C13.8700007,20.0100021 14.0599988,20.3733318 14.3,20.68 C14.5400012,20.9866682 14.826665,21.2266658 15.16,21.4 C15.493335,21.5733342 15.859998,21.66 16.26,21.66 C17.060004,21.66 17.6666646,21.293337 18.08,20.56 C18.4933354,19.826663 18.7,18.7466738 18.7,17.32 C18.7,15.9333264 18.4966687,14.8766703 18.09,14.15 C17.6833313,13.4233297 17.0733374,13.06 16.26,13.06 C15.7799976,13.06 15.3366687,13.1899987 14.93,13.45 C14.5233313,13.7100013 14.2066678,14.073331 13.98,14.54 C13.6733318,15.1800032 13.52,15.9866618 13.52,16.96 L13.52,18.22 Z M13.48,13.38 L13.56,13.38 C13.9066684,12.8733308 14.3533306,12.4833347 14.9,12.21 C15.4466694,11.9366653 16.0666632,11.8 16.76,11.8 C17.4666702,11.8 18.1233303,11.9433319 18.73,12.23 C19.3366697,12.5166681 19.8633311,12.9066642 20.31,13.4 C20.7566689,13.8933358 21.1066654,14.47333 21.36,15.14 C21.6133346,15.80667 21.74,16.5199962 21.74,17.28 C21.74,18.080004 21.6033347,18.8166633 21.33,19.49 C21.0566653,20.1633367 20.6833357,20.7466642 20.21,21.24 C19.7366643,21.7333358 19.1833365,22.1199986 18.55,22.4 C17.9166635,22.6800014 17.2466702,22.82 16.54,22.82 C15.806663,22.82 15.1166699,22.6766681 14.47,22.39 C13.8233301,22.1033319 13.3066686,21.726669 12.92,21.26 L11.4,22.6 L10.72,22.6 L10.72,10.7 C10.72,9.4466604 10.6333342,8.586669 10.46,8.12 C10.4199998,8.0266662 10.3733336,7.946667 10.32,7.88 C10.2666664,7.813333 10.1900005,7.7566669 10.09,7.71 C9.9899995,7.6633331 9.8533342,7.6233335 9.68,7.59 C9.5066658,7.5566665 9.2800014,7.5200002 9,7.48 L9,6.8 L13.48,6 L13.48,13.38 Z"></path>
</svg>
