<?xml version="1.0" encoding="UTF-8"?>
<svg width="30px" height="30px" viewBox="0 0 30 30" version="1.1" xmlns="http://www.w3.org/2000/svg" xmlns:xlink="http://www.w3.org/1999/xlink">
    <!-- Generator: Sketch 42 (36781) - http://www.bohemiancoding.com/sketch -->
    <title>calendar-solid</title>
    <desc>Created with Sketch.</desc>
    <defs></defs>
    <g id="Icons" stroke="none" stroke-width="1" fill="none" fill-rule="evenodd">
        <g id="calendar-solid" fill="#050505">
            <path d="M30,7.5 L30,25.9937057 C30,28.206321 28.2132053,30 26.0007252,30 L3.9992748,30 C1.79053632,30 0,28.2143671 0,25.9937057 L0,7.5 L0,4 C0,1.790861 1.78679466,0 3.9992748,0 L26.0007252,0 C28.2094637,0 30,1.79535615 30,4 L30,7.5 Z M17.5756493,17.1902394 C17.5756493,17.1902394 18.5,16.1064412 18.5,15 C18.5,12.790861 17.209139,11.5 15,11.5 C12.790861,11.5 11.5,12.790861 11.5,15 C11.5,16.1064412 12.4243507,17.1902394 12.4243507,17.1902394 C12.7318301,17.6398048 12.6549766,18.279407 12.2293687,18.6240731 L12.1752549,18.6678956 C11.4492338,19.3920419 11,20.3935588 11,21.5 C11,23.709139 12.790861,25 15,25 C17.209139,25 19,23.709139 19,21.5 C19,20.3935588 18.5507662,19.3920419 17.8284271,18.6642136 L17.7740717,18.6206327 C17.3561354,18.2855411 17.257727,17.6374578 17.5756493,17.1902394 Z M13.5,15 C13.5,13.8954305 14,13.4999999 15,13.5 C16,13.5000001 16.5,13.8954305 16.5,15 C16.5,15.5560378 16.2451172,16.5 15,16.5 C13.7548828,16.5 13.5,15.5560378 13.5,15 Z M13,21.5 C13,20.9439622 13.2269104,20.4409222 13.5857864,20.0784271 L13.8067573,19.9099229 C14.4733991,19.4015665 15.5314384,19.4073864 16.187001,19.9099229 L16.406816,20.0784271 C16.7730896,20.4409222 17,20.9439622 17,21.5 C17,22.6045695 16,23 15,23 C14,23 13,22.6045695 13,21.5 Z M2,3.99791312 C2,2.89449617 2.89497885,2 3.99700466,2 L26.0029953,2 C27.1059106,2 28,2.89826062 28,3.99791312 L28,8 L2,8 L2,3.99791312 Z" id="Combined-Shape"></path>
        </g>
    </g>
</svg>