<?xml version="1.0" encoding="UTF-8"?>
<svg width="30px" height="30px" viewBox="0 0 30 30" version="1.1" xmlns="http://www.w3.org/2000/svg" xmlns:xlink="http://www.w3.org/1999/xlink">
    <!-- Generator: Sketch 42 (36781) - http://www.bohemiancoding.com/sketch -->
    <title>calendar</title>
    <desc>Created with Sketch.</desc>
    <defs></defs>
    <g id="Icons" stroke="none" stroke-width="1" fill="none" fill-rule="evenodd">
        <g id="calendar" fill="#050505">
            <path d="M30,7.5 L30,4 C30,1.79535615 28.2094637,0 26.0007252,0 L3.9992748,0 C1.78679466,0 0,1.790861 0,4 L0,7.5 L0,25.9937057 C0,28.2143671 1.79053632,30 3.9992748,30 L26.0007252,30 C28.2132053,30 30,28.206321 30,25.9937057 L30,7.5 L30,7.5 Z M28,8 L28,8 L28,26.008845 C28,27.1085295 27.1050211,28 26.0029953,28 L3.99700466,28 C2.89408944,28 2,27.1103261 2,26.008845 L2,8 L28,8 Z M17.5756493,17.1902394 C17.5756493,17.1902394 18.5,16.1064412 18.5,15 C18.5,12.790861 17.209139,11.5 15,11.5 C12.790861,11.5 11.5,12.790861 11.5,15 C11.5,16.1064412 12.4243507,17.1902394 12.4243507,17.1902394 C12.7318301,17.6398048 12.6549766,18.279407 12.2293687,18.6240731 L12.1752549,18.6678956 C11.4492338,19.3920419 11,20.3935588 11,21.5 C11,23.709139 12.790861,25 15,25 C17.209139,25 19,23.709139 19,21.5 C19,20.3935588 18.5507662,19.3920419 17.8284271,18.6642136 L17.7740717,18.6206327 C17.3561354,18.2855411 17.257727,17.6374578 17.5756493,17.1902394 Z M13.5,15 C13.5,13.8954305 14,13.4999999 15,13.5 C16,13.5000001 16.5,13.8954305 16.5,15 C16.5,15.5560378 16.2451172,16.5 15,16.5 C13.7548828,16.5 13.5,15.5560378 13.5,15 Z M13,21.5 C13,22.6045695 14,23 15,23 C16,23 17,22.6045695 17,21.5 C17,20.9439622 16.7730896,20.4409222 16.406816,20.0784271 L16.187001,19.9099229 C15.5314384,19.4073864 14.4733991,19.4015665 13.8067573,19.9099229 L13.5857864,20.0784271 C13.2269104,20.4409222 13,20.9439622 13,21.5 Z" id="Combined-Shape"></path>
        </g>
    </g>
</svg>