<?xml version="1.0" encoding="UTF-8"?>
<svg width="30px" height="30px" viewBox="0 0 30 30" version="1.1" xmlns="http://www.w3.org/2000/svg" xmlns:xlink="http://www.w3.org/1999/xlink">
    <!-- Generator: Sketch 42 (36781) - http://www.bohemiancoding.com/sketch -->
    <title>cancel-solid</title>
    <desc>Created with Sketch.</desc>
    <defs></defs>
    <g id="Icons" stroke="none" stroke-width="1" fill="none" fill-rule="evenodd">
        <g id="cancel-solid" fill="#050505">
            <path d="M15,30 C23.2842712,30 30,23.2842712 30,15 C30,6.71572875 23.2842712,0 15,0 C6.71572875,0 0,6.71572875 0,15 C0,23.2842712 6.71572875,30 15,30 Z M20.4445464,10.7579757 C20.837868,10.364654 20.8356871,9.73367004 20.4451628,9.34314575 C20.0519158,8.9498988 19.4211975,8.95289741 19.0303328,9.34376211 L14.7883085,13.5857864 L10.5462842,9.34376211 C10.1529625,8.95044047 9.52197856,8.95262146 9.13145426,9.34314575 C8.73820731,9.73639271 8.74120592,10.367111 9.13207062,10.7579757 L13.374095,15 L9.13207062,19.2420243 C8.73874898,19.635346 8.74092997,20.26633 9.13145426,20.6568542 C9.52470122,21.0501012 10.1554195,21.0471026 10.5462842,20.6562379 L14.7883085,16.4142136 L19.0303328,20.6562379 C19.4236545,21.0495595 20.0546385,21.0473785 20.4451628,20.6568542 C20.8384097,20.2636073 20.8354111,19.632889 20.4445464,19.2420243 L16.2025221,15 L20.4445464,10.7579757 Z" id="Oval-15"></path>
        </g>
    </g>
</svg>