<?xml version="1.0" encoding="UTF-8"?>
<svg width="30px" height="30px" viewBox="0 0 30 30" version="1.1" xmlns="http://www.w3.org/2000/svg" xmlns:xlink="http://www.w3.org/1999/xlink">
    <!-- Generator: Sketch 42 (36781) - http://www.bohemiancoding.com/sketch -->
    <title>cart-solid</title>
    <desc>Created with Sketch.</desc>
    <defs></defs>
    <g id="Icons" stroke="none" stroke-width="1" fill="none" fill-rule="evenodd">
        <g id="cart-solid" fill="#050505">
            <path d="M9.63666181,9 C9.08421238,9 8.59655624,8.56211865 8.54518824,7.99707067 L8.18065409,3.98719501 C8.08088159,2.88969751 7.10173938,2 6.00208688,2 L2.99077797,2 C2.44358641,2 2,2.44386482 2,3 L2,3 C2,3.55228475 2.4475278,4 2.99103254,4 L5.19078565,4 C5.7381178,4 6.2232096,4.45530558 6.2719821,4.99180311 L7.81901862,22.0092049 C7.91897188,23.1086907 8.89005841,24 10.0001062,24 L24.0000398,24 C24.5523026,24 25,23.5561352 25,23 L25,23 C25,22.4477153 24.5620106,22 24.0038785,22 L10.8143033,22 C10.2641606,22 9.77783047,21.5561352 9.72727273,21 L9.72727273,21 C9.67706502,20.4477153 10.0795984,20 10.6444147,20 L22.9914729,20 C24.1007518,20 25.235405,19.1368484 25.5259931,18.0713587 L27.4740069,10.9286413 C27.7645049,9.86348211 27.1048867,9 26.0006833,9 L9.63666181,9 L9.63666181,9 Z M9.5,28 C10.3284271,28 11,27.3284271 11,26.5 C11,25.6715729 10.3284271,25 9.5,25 C8.67157288,25 8,25.6715729 8,26.5 C8,27.3284271 8.67157288,28 9.5,28 L9.5,28 L9.5,28 Z M23.5,28 C24.3284271,28 25,27.3284271 25,26.5 C25,25.6715729 24.3284271,25 23.5,25 C22.6715729,25 22,25.6715729 22,26.5 C22,27.3284271 22.6715729,28 23.5,28 L23.5,28 L23.5,28 Z" id="Combined-Shape"></path>
        </g>
    </g>
</svg>