<?xml version="1.0" encoding="UTF-8"?>
<svg width="30px" height="30px" viewBox="0 0 30 30" version="1.1" xmlns="http://www.w3.org/2000/svg" xmlns:xlink="http://www.w3.org/1999/xlink">
    <!-- Generator: Sketch 42 (36781) - http://www.bohemiancoding.com/sketch -->
    <title>check-solid</title>
    <desc>Created with Sketch.</desc>
    <defs></defs>
    <g id="Icons" stroke="none" stroke-width="1" fill="none" fill-rule="evenodd">
        <g id="check-solid" fill="#050505">
            <path d="M15,30 C23.2842712,30 30,23.2842712 30,15 C30,6.71572875 23.2842712,0 15,0 C6.71572875,0 0,6.71572875 0,15 C0,23.2842712 6.71572875,30 15,30 Z M22.348626,9.95036382 C22.7394907,9.55949913 23.370209,9.55650051 23.763456,9.94974747 C24.1539803,10.3402718 24.1561613,10.9712557 23.7628396,11.3645774 L13.8645774,21.2628396 C13.4737127,21.6537043 12.8429944,21.6567029 12.4497475,21.263456 L8.20500677,17.0187153 C7.81564228,16.6293508 7.81385983,15.9998487 8.20710678,15.6066017 C8.59763107,15.2160774 9.23455861,15.21984 9.61922033,15.6045017 L13.1568542,19.1421356 L22.348626,9.95036382 Z" id="Oval-15"></path>
        </g>
    </g>
</svg>