<?xml version="1.0" encoding="UTF-8"?>
<svg width="30px" height="30px" viewBox="0 0 30 30" version="1.1" xmlns="http://www.w3.org/2000/svg" xmlns:xlink="http://www.w3.org/1999/xlink">
    <!-- Generator: Sketch 42 (36781) - http://www.bohemiancoding.com/sketch -->
    <title>direction-solid</title>
    <desc>Created with Sketch.</desc>
    <defs></defs>
    <g id="Icons" stroke="none" stroke-width="1" fill="none" fill-rule="evenodd">
        <g id="direction-solid" fill="#010101">
            <path d="M12.0589687,27.6153179 C13.6211129,29.1774621 16.1635101,29.1811476 17.7293398,27.6153179 L27.6153179,17.7293398 C29.1774621,16.1671956 29.1811476,13.6247984 27.6153179,12.0589687 L17.7293398,2.17299066 C16.1671956,0.610846415 13.6247984,0.607160897 12.0589687,2.17299066 L2.17299066,12.0589687 C0.610846415,13.6211129 0.607160897,16.1635101 2.17299066,17.7293398 L8.29510378,23.851453 C8.68440721,24.2407564 9,24.1057048 9,23.5605809 L9,18 C9,15.790861 10.790861,14 13,14 L18.5866084,14 L15.2973161,10.7107077 C14.8977668,10.3111584 14.9047204,9.68494704 15.2952447,9.29442274 C15.6884917,8.90117579 16.3181567,8.90312113 16.7077221,9.29268655 L20.9539433,13.5389078 C21.7328454,14.3178099 21.7339733,15.5836162 20.9539433,16.3636462 L16.7077221,20.6098674 C16.3179413,20.9996482 15.685769,20.9986555 15.2952447,20.6081312 C14.9019978,20.2148843 14.9056478,19.5835146 15.2973161,19.1918463 L18.4891624,16 L13,16 C11.8954305,16 11,16.8954305 11,18 L11,26.0467346 C11,26.3281869 11.1562545,26.7126037 11.3585185,26.9148677 L12.0589687,27.6153179 Z" id="Combined-Shape"></path>
        </g>
    </g>
</svg>