<?xml version="1.0" encoding="UTF-8"?>
<svg width="30px" height="30px" viewBox="0 0 30 30" version="1.1" xmlns="http://www.w3.org/2000/svg" xmlns:xlink="http://www.w3.org/1999/xlink">
    <!-- Generator: Sketch 42 (36781) - http://www.bohemiancoding.com/sketch -->
    <title>direction</title>
    <desc>Created with Sketch.</desc>
    <defs></defs>
    <g id="Icons" stroke="none" stroke-width="1" fill="none" fill-rule="evenodd">
        <g id="direction" fill="#010101">
            <path d="M12.0589687,2.17299066 C13.6247984,0.607160897 16.1671956,0.610846415 17.7293398,2.17299066 L27.6153179,12.0589687 C29.1811476,13.6247984 29.1774621,16.1671956 27.6153179,17.7293398 L17.7293398,27.6153179 C16.1635101,29.1811476 13.6211129,29.1774621 12.0589687,27.6153179 L2.17299066,17.7293398 C0.607160897,16.1635101 0.610846415,13.6211129 2.17299066,12.0589687 L12.0589687,2.17299066 L12.0589687,2.17299066 Z M13.4834131,26.2113352 C14.2629746,26.9908967 15.5257646,26.990466 16.3048954,26.2113352 L26.2113352,16.3048954 C26.9908967,15.5253339 26.990466,14.2625439 26.2113352,13.4834131 L16.3048954,3.57697336 C15.5253339,2.79741183 14.2625439,2.79784253 13.4834131,3.57697336 L3.57697336,13.4834131 C2.79741183,14.2629746 2.79784253,15.5257646 3.57697336,16.3048954 L8.29103397,21.018956 C8.6825851,21.4105072 9,21.2708056 9,20.7289074 L9,18 C9,15.790861 10.790861,14 13,14 L18.5866084,14 L15.2973161,10.7107077 C14.8977668,10.3111584 14.9047204,9.68494704 15.2952447,9.29442274 C15.6884917,8.90117579 16.3181567,8.90312113 16.7077221,9.29268655 L20.9539433,13.5389078 C21.7328454,14.3178099 21.7339733,15.5836162 20.9539433,16.3636462 L16.7077221,20.6098674 C16.3179413,20.9996482 15.685769,20.9986555 15.2952447,20.6081312 C14.9019978,20.2148843 14.9056478,19.5835146 15.2973161,19.1918463 L18.4891624,16 L13,16 C11.8954305,16 11,16.8954305 11,18 L11,23.2196072 C11,23.5003417 11.1629437,23.8908657 11.3558125,24.0837346 L13.4834131,26.2113352 L13.4834131,26.2113352 Z" id="Combined-Shape"></path>
        </g>
    </g>
</svg>