<?xml version="1.0" encoding="UTF-8"?>
<svg width="30px" height="30px" viewBox="0 0 30 30" version="1.1" xmlns="http://www.w3.org/2000/svg" xmlns:xlink="http://www.w3.org/1999/xlink">
    <!-- Generator: Sketch 42 (36781) - http://www.bohemiancoding.com/sketch -->
    <title>download-solid</title>
    <desc>Created with Sketch.</desc>
    <defs></defs>
    <g id="Icons" stroke="none" stroke-width="1" fill="none" fill-rule="evenodd">
        <g id="download-solid" fill="#050505">
            <path d="M30,15 C30,6.71572875 23.2842712,0 15,0 C6.71572875,0 0,6.71572875 0,15 C0,23.2842712 6.71572875,30 15,30 C23.2842712,30 30,23.2842712 30,15 Z M10.8218832,15.6562379 C10.4310185,16.0471026 9.80030023,16.0501012 9.40705327,15.6568542 C9.01652898,15.26633 9.01434799,14.635346 9.40766963,14.2420243 L14.3589776,9.29071639 C14.7482996,8.90139433 15.3842177,8.90609658 15.7688375,9.29071639 L20.7201454,14.2420243 C21.1110101,14.632889 21.1140087,15.2636073 20.7207618,15.6568542 C20.3302375,16.0473785 19.6992535,16.0495595 19.3059319,15.6562379 L16,12.350306 L16,20.9975267 C16,21.5511774 15.5561352,22 15,22 C14.4477153,22 14,21.544239 14,20.9975267 L14,12.4781211 L10.8218832,15.6562379 Z" id="Oval-15" transform="translate(15.000000, 15.000000) scale(1, -1) translate(-15.000000, -15.000000) "></path>
        </g>
    </g>
</svg>