<?xml version="1.0" encoding="UTF-8"?>
<svg width="30px" height="30px" viewBox="0 0 30 30" version="1.1" xmlns="http://www.w3.org/2000/svg" xmlns:xlink="http://www.w3.org/1999/xlink">
    <!-- Generator: Sketch 42 (36781) - http://www.bohemiancoding.com/sketch -->
    <title>email</title>
    <desc>Created with Sketch.</desc>
    <defs></defs>
    <g id="Icons" stroke="none" stroke-width="1" fill="none" fill-rule="evenodd">
        <g id="email" fill="#050505">
            <path d="M15,5 L26.0007252,5 C28.2094637,5 30,6.79246765 30,8.99922997 L30,21.00077 C30,23.2094838 28.2132053,25 26.0007252,25 L3.9992748,25 C1.79053632,25 0,23.2075324 0,21.00077 L0,8.99406028 C0,8.99234265 4.33048379e-06,8.9906357 1.2981129e-05,8.98893938 C0.0055690651,6.78689792 1.79397059,5 3.9992748,5 L15,5 L15,5 Z M27.4147573,22.4159533 L27.4150909,22.4152998 C27.0537041,22.7763716 26.554453,23 26.0029953,23 L3.99700466,23 C2.89497885,23 2,22.1072288 2,21.0059397 L2,8.99406028 C2,7.89451376 2.89408944,7 3.99700466,7 L22.5853529,7 L23.0426764,7 L26.0029953,7 C27.1059106,7 28,7.89451376 28,8.99406028 L28,21.0059397 C28,21.5565843 27.7762553,22.0550993 27.4147573,22.4159533 Z M14.9709511,13.8565674 C14.5244841,13.8585235 14.1399171,13.6816093 13.9784341,13.6218917 C11.2821522,12.6247854 4.16845339,10 4,10 C3.44771525,10 3,10.4477153 3,11 C3,11.4119002 3.24903462,11.7656352 3.60475128,11.9188525 C3.64526696,11.9363037 11.6040523,14.7998817 13.9761576,15.6533034 C14.102755,15.6961722 14.5093825,15.8428315 14.9709511,15.8417358 C15.4093199,15.8406953 15.9034954,15.6940557 16.0238424,15.6533034 C18.3959477,14.7998817 26.354733,11.9363037 26.3952487,11.9188525 C26.7509654,11.7656352 27,11.4119002 27,11 C27,10.4477153 26.5522847,10 26,10 C25.8315466,10 18.7178478,12.6247854 16.0215659,13.6218917 C15.8703267,13.6778211 15.3890961,13.8547353 14.9709511,13.8565674 Z" id="Combined-Shape"></path>
        </g>
    </g>
</svg>