<?xml version="1.0" encoding="UTF-8"?>
<svg width="30px" height="30px" viewBox="0 0 30 30" version="1.1" xmlns="http://www.w3.org/2000/svg" xmlns:xlink="http://www.w3.org/1999/xlink">
    <!-- Generator: Sketch 42 (36781) - http://www.bohemiancoding.com/sketch -->
    <title>export</title>
    <desc>Created with Sketch.</desc>
    <defs></defs>
    <g id="Icons" stroke="none" stroke-width="1" fill="none" fill-rule="evenodd">
        <g id="export" fill="#010101">
            <path d="M23,8.41508969 L16.7123482,14.7027415 C16.3132015,15.1018882 15.682712,15.0992127 15.2921877,14.7086884 C14.8989407,14.3154415 14.9043259,13.6823366 15.2981346,13.2885279 L21.5866626,7 L15.9933977,7 C15.4447593,7 15,6.55613518 15,6 C15,5.44771525 15.4553056,5 15.9918031,5 L23.0092049,5 C24.1086907,5 25,5.89821238 25,6.99079514 L25,14.0081969 C25,14.5559546 24.5561352,15 24,15 C23.4477153,15 23,14.5550537 23,14.0066023 L23,8.41508969 Z M21.9991283,23 C22.5518945,23 23,22.5562834 23,22.0001925 L23,18.9998075 C23,18.4476291 23.4438648,18 24,18 C24.5522847,18 25,18.4378814 25,19.0029293 L25,21.9907455 C25,23.6527109 23.656688,25 22.0057979,25 L7.99420208,25 C6.34054993,25 5,23.656688 5,22.0057979 L5,7.99420208 C5,6.34054993 6.34967041,5 8.00925446,5 L10.9970707,5 C11.5509732,5 12,5.44386482 12,6 C12,6.55228475 11.5562834,7 11.0001925,7 L7.99980749,7 C7.44762906,7 7,7.44463086 7,8.00087166 L7,21.9991283 C7,22.5518945 7.44463086,23 8.00087166,23 L21.9991283,23 Z" id="Combined-Shape"></path>
        </g>
    </g>
</svg>