<?xml version="1.0" encoding="UTF-8"?>
<svg width="30px" height="30px" viewBox="0 0 30 30" version="1.1" xmlns="http://www.w3.org/2000/svg" xmlns:xlink="http://www.w3.org/1999/xlink">
    <!-- Generator: Sketch 42 (36781) - http://www.bohemiancoding.com/sketch -->
    <title>eye-solid</title>
    <desc>Created with Sketch.</desc>
    <defs></defs>
    <g id="Icons" stroke="none" stroke-width="1" fill="none" fill-rule="evenodd">
        <g id="eye-solid" fill="#050505">
            <path d="M28.946459,16.6826373 C29.5283136,15.7533424 29.5183106,14.2439255 28.8861062,13.3293368 C28.8861062,13.3293368 23.5,4 15,4 C6.5,4 1.09680695,13.3531889 1.09680695,13.3531889 C0.4910572,14.2626975 0.460249655,15.7734986 1.06170561,16.6946432 C1.06170561,16.6946432 6,26 15,26 C24,26 28.946459,16.6826373 28.946459,16.6826373 Z M22,15 C22,11.1340068 18.8659932,8 15,8 C11.1340068,8 8,11.1340068 8,15 C8,18.8659932 11.1340068,22 15,22 C18.8659932,22 22,18.8659932 22,15 Z M11.0084876,15.2626823 C11.0028584,15.1758475 11,15.0882575 11,15 C11,12.790861 12.790861,11 15,11 C17.209139,11 19,12.790861 19,15 C19,17.209139 17.209139,19 15,19 C14.3610902,19 13.7571666,18.8502058 13.2214332,18.5838213 C13.6950013,18.21807 14,17.6446531 14,17 C14,15.8954305 13.1045695,15 12,15 C11.639211,15 11.3007348,15.0955328 11.0084876,15.2626823 L11.0084876,15.2626823 L11.0084876,15.2626823 Z" id="Combined-Shape"></path>
        </g>
    </g>
</svg>