<?xml version="1.0" encoding="UTF-8"?>
<svg width="30px" height="30px" viewBox="0 0 30 30" version="1.1" xmlns="http://www.w3.org/2000/svg" xmlns:xlink="http://www.w3.org/1999/xlink">
    <!-- Generator: Sketch 42 (36781) - http://www.bohemiancoding.com/sketch -->
    <title>eye</title>
    <desc>Created with Sketch.</desc>
    <defs></defs>
    <g id="Icons" stroke="none" stroke-width="1" fill="none" fill-rule="evenodd">
        <g id="eye" fill="#050505">
            <path d="M15,26 C6,26 1.06170561,16.6946432 1.06170561,16.6946432 C0.460249655,15.7734986 0.4910572,14.2626975 1.09680695,13.3531889 C1.09680695,13.3531889 6.5,4 15,4 C23.5,4 28.8861062,13.3293368 28.8861062,13.3293368 C29.5183106,14.2439255 29.5283136,15.7533424 28.946459,16.6826373 C28.946459,16.6826373 24,26 15,26 Z M9.79797363,7.43017574 C8.59160931,8.08959291 6.94479196,9.35299336 5.69763184,10.6861572 C4.60631992,11.8527256 3.61640476,13.0237746 3.08026123,13.8693847 C2.7165509,14.4430318 2.61895752,14.8873341 2.61895752,15 C2.61895753,16.0886572 4.47370941,18.5766554 6.6463623,20.5181885 C7.49749736,21.2787825 8.33640478,21.8443892 9.25720215,22.4227295 C11.7130257,23.9651987 14.1324011,24 15,24 C16.0645518,24 18.4785156,23.7915039 20.7122192,22.4227295 C21.5850024,21.8879033 23.26048,20.7672935 24.4080811,19.4425049 C26.197522,17.3767774 27.3731079,15.9237061 27.3731079,15 C27.3731079,14.6717438 26.8051147,13.0683594 23.4949951,9.93377686 C22.0274369,8.54404392 20.7399902,7.531311 18.5653687,6.66271973 C16.3907471,5.79412847 15,6 15,6 C15,6 12.776062,5.80230713 9.79797363,7.43017574 Z M15,22 C11.1340068,22 8,18.8659932 8,15 C8,11.1340068 11.1340068,8 15,8 C18.8659932,8 22,11.1340068 22,15 C22,18.8659932 18.8659932,22 15,22 Z M15,20 C17.7614237,20 20,17.7614237 20,15 C20,12.2385763 17.7614237,10 15,10 C12.2385763,10 10,12.2385763 10,15 C10,17.7614237 12.2385763,20 15,20 Z M11.0084876,15.2626823 C11.0028584,15.1758475 11,15.0882575 11,15 C11,12.790861 12.790861,11 15,11 C17.209139,11 19,12.790861 19,15 C19,17.209139 17.209139,19 15,19 C14.3610902,19 13.7571666,18.8502058 13.2214332,18.5838213 C13.6950013,18.21807 14,17.6446531 14,17 C14,15.8954305 13.1045695,15 12,15 C11.639211,15 11.3007348,15.0955328 11.0084876,15.2626823 L11.0084876,15.2626823 Z" id="Combined-Shape"></path>
        </g>
    </g>
</svg>