<?xml version="1.0" encoding="UTF-8"?>
<svg width="30px" height="30px" viewBox="0 0 30 30" version="1.1" xmlns="http://www.w3.org/2000/svg" xmlns:xlink="http://www.w3.org/1999/xlink">
    <!-- Generator: Sketch 42 (36781) - http://www.bohemiancoding.com/sketch -->
    <title>facebook</title>
    <desc>Created with Sketch.</desc>
    <defs></defs>
    <g id="Icons" stroke="none" stroke-width="1" fill="none" fill-rule="evenodd">
        <g id="facebook" fill="#000505">
            <path d="M26.0007252,30 C28.2132053,30 30,28.2094637 30,26.0007252 L30,3.9992748 C30,1.78679466 28.2094637,0 26.0007252,0 L3.9992748,0 C1.78679466,0 0,1.79053632 0,3.9992748 L0,26.0007252 C0,28.2132053 1.79053632,30 3.9992748,30 L15.0276106,30 L15.0276106,20.0811782 L11.8999939,20.0811782 L11.8999939,16.4590656 L15.0276106,16.4590656 L15.0276106,13.7878564 C15.0276106,10.6879911 16.9208501,9 19.686209,9 C21.0108248,9 22.149376,9.0986198 22.4810887,9.14276125 L22.4810887,12.3824078 L20.5630778,12.383246 C19.0592888,12.383246 18.7680856,13.0978903 18.7680856,14.1465755 L18.7680856,16.4590656 L22.3548106,16.4590656 L21.8876936,20.0811782 L18.7680856,20.0811782 L18.7680856,30 L26.0007252,30 Z" id="Combined-Shape"></path>
        </g>
    </g>
</svg>