<?xml version="1.0" encoding="UTF-8"?>
<svg width="30px" height="30px" viewBox="0 0 30 30" version="1.1" xmlns="http://www.w3.org/2000/svg" xmlns:xlink="http://www.w3.org/1999/xlink">
    <!-- Generator: Sketch 42 (36781) - http://www.bohemiancoding.com/sketch -->
    <title>fan-solid</title>
    <desc>Created with Sketch.</desc>
    <defs></defs>
    <g id="Icons" stroke="none" stroke-width="1" fill="none" fill-rule="evenodd">
        <g id="fan-solid" fill="#050505">
            <path d="M0,14.9962759 C0,6.71572875 6.71572875,0 15,0 C23.2842712,0 30,6.71572875 30,15 L16.4111636,28.5888364 C15.6317995,29.3682005 14.3650496,29.3648919 13.5888364,28.5884861 L0,14.9962759 Z M15.7219532,25.8055418 C15.3232293,26.1890805 14.6785356,26.1902014 14.2792889,25.8053817 C14.2792889,25.8053817 8.14440932,19.8941317 8.14440932,19.874469 C9.54462193,17.5526602 12.0909894,16 15,16 C17.9172148,16 20.4697381,17.5614304 21.8674103,19.8941317 C21.8674098,19.8941317 15.7219532,25.8055418 15.7219532,25.8055418 Z M21.7795433,16.6488908 L25.6567127,12.6339643 C26.0401691,12.2368836 26.0317323,11.6066517 25.6316821,11.2203277 L25.6316821,11.2203277 C25.2344017,10.8366785 24.6011077,10.8479623 24.2124217,11.2504584 L20.1688366,15.4377133 C20.1408751,15.4207974 20.112824,15.4040145 20.0846843,15.3873657 C20.6942068,15.7479894 21.2621342,16.1714724 21.7795433,16.6488908 Z M9.64731022,15.551673 L5.48915109,11.2457731 C5.10509441,10.8480708 4.47446533,10.8340038 4.07441516,11.2203277 L4.07441516,11.2203277 C3.67713476,11.603977 3.66421051,12.2351049 4.05027447,12.6348859 L8.06658256,16.7938946 C8.54946028,16.3291779 9.07893682,15.9125367 9.64731022,15.551673 Z M12.25797,14.3806089 L9.27859321,7.00639269 C9.07347814,6.49871509 8.49565523,6.25343577 7.98001567,6.46176767 L7.98001567,6.46176767 C7.46794617,6.66865718 7.22337873,7.25849267 7.42373629,7.75439503 L10.3991885,15.1188977 C10.987058,14.8137346 11.6090629,14.5652273 12.25797,14.3806089 Z M15,14 C15.3374994,14 15.6710938,14.0167194 16,14.0493752 L16,5.00031237 C16,4.4478551 15.5561352,4 15,4 L15,4 C14.4477153,4 14,4.44477587 14,5.00031237 L14,14.0493752 C14.3289062,14.0167194 14.6625006,14 15,14 Z M19.3602887,14.9981372 C19.3590097,14.9975165 22.2753844,7.77256688 22.2753844,7.77256688 C22.4840824,7.25552197 22.2417212,6.67009957 21.7260816,6.46176767 L21.7260816,6.46176767 C21.2140121,6.25487816 20.6295973,6.50619448 20.4242909,7.01434556 L17.4769975,14.3091526 C18.133099,14.4763491 18.763274,14.708422 19.3602887,14.9981372 Z" id="fan"></path>
        </g>
    </g>
</svg>