<?xml version="1.0" encoding="UTF-8"?>
<svg width="30px" height="30px" viewBox="0 0 30 30" version="1.1" xmlns="http://www.w3.org/2000/svg" xmlns:xlink="http://www.w3.org/1999/xlink">
    <!-- Generator: Sketch 42 (36781) - http://www.bohemiancoding.com/sketch -->
    <title>fan</title>
    <desc>Created with Sketch.</desc>
    <defs></defs>
    <g id="Icons" stroke="none" stroke-width="1" fill="none" fill-rule="evenodd">
        <g id="fan" fill="#050505">
            <path d="M15.7051944,26.2948056 C15.3157263,26.6842737 14.6830686,26.6830686 14.2948056,26.2948056 L8.04463124,20.0446312 C9.42140456,17.6288345 12.0204849,16 15,16 C17.9795151,16 20.5785954,17.6288345 21.9553688,20.0446312 L15.7051944,26.2948056 Z M0,14.9962759 C0,6.71572875 6.71572875,0 15,0 C23.2842712,0 30,6.71572875 30,15 L16.4111636,28.5888364 C15.6317995,29.3682005 14.3650496,29.3648919 13.5888364,28.5884861 L0,14.9962759 Z M2,14.0493755 L6.58898664,18.5889866 C7.01111787,17.9341692 7.50763156,17.3318235 8.06658256,16.7938946 L4.05027447,12.6348859 C3.66421051,12.2351049 3.67713476,11.603977 4.07441516,11.2203277 C4.47446533,10.8340038 5.10509441,10.8480708 5.48915109,11.2457731 L9.64731022,15.551673 C9.89098901,15.3969598 10.1418174,15.2524991 10.3991885,15.1188977 L7.42373629,7.75439503 C7.22337873,7.25849267 7.46794617,6.66865718 7.98001567,6.46176767 C8.49565523,6.25343577 9.07347814,6.49871509 9.27859321,7.00639269 L12.25797,14.3806089 C12.8200301,14.220699 13.4022735,14.1087211 14,14.0493752 L14,5.00031237 C14,4.44477587 14.4477153,4 15,4 C15.5561352,4 16,4.4478551 16,5.00031237 L16,14.0493752 C16.5042944,14.0994446 16.9975678,14.186978 17.4769975,14.3091526 L20.4242909,7.01434556 C20.6295973,6.50619448 21.2140121,6.25487816 21.7260816,6.46176767 C22.2417212,6.67009957 22.4839456,7.25545565 22.2750789,7.77241874 L19.3564512,14.996276 C19.6346858,15.1311485 19.9057248,15.2785382 20.1688366,15.4377133 L24.2124217,11.2504584 C24.6011077,10.8479623 25.2344017,10.8366785 25.6316821,11.2203277 C26.0317323,11.6066517 26.0401691,12.2368836 25.6567127,12.6339643 L21.7795433,16.6488908 C22.4015409,17.2228139 22.9505328,17.874681 23.4110134,18.5889866 L27.9647444,14.0352556 C27.5,7.5 21.9363277,2 15,2 C8.23242716,2 2.5,7.5 2,14.0493755 Z" id="Combined-Shape"></path>
        </g>
    </g>
</svg>