<?xml version="1.0" encoding="UTF-8"?>
<svg width="30px" height="30px" viewBox="0 0 30 30" version="1.1" xmlns="http://www.w3.org/2000/svg" xmlns:xlink="http://www.w3.org/1999/xlink">
    <!-- Generator: Sketch 42 (36781) - http://www.bohemiancoding.com/sketch -->
    <title>flat-solid</title>
    <desc>Created with Sketch.</desc>
    <defs></defs>
    <g id="Icons" stroke="none" stroke-width="1" fill="none" fill-rule="evenodd">
        <g id="flat-solid" fill="#010101">
            <path d="M3.5,17.5673828 C3.5,17.1114998 3,15.0617823 3,13.5673828 C3,12.9442765 3.27582837,12.2788064 3.4177498,11.4631155 C3.46690761,11.1805818 3.5,11 4,11 C5.02451248,11 6.68395054,11.295455 7.97497559,11.295455 C10.0560449,11.295455 11.6914278,11 12,11 C12.5,11 12.6482947,11.1162173 12.9246937,11.295455 C13.6633478,11.7744534 16.6859808,13.8858507 21,14.5673828 C25.1876659,15.2289536 27.58498,17.7263455 27.5849804,18.6451847 C27.5849809,19.564024 26.8062325,19.5673828 25.7420283,19.55708 C22.924462,19.5298025 17.4478978,19.4785824 15.5,19.0673828 C13.5,18.6451845 12.507549,18.3531003 11.5320097,18.0232654 C10.7604773,17.7624063 10.2832031,17.7226601 10.2832031,18.1839223 C10.2832031,18.6451845 10.2832031,19.5673828 10.2832031,19.5673828 L3.5,19.5673828 C3.5,19.5673828 3.5,18.0232658 3.5,17.5673828 Z" id="Rectangle"></path>
        </g>
    </g>
</svg>