<?xml version="1.0" encoding="UTF-8"?>
<svg width="30px" height="30px" viewBox="0 0 30 30" version="1.1" xmlns="http://www.w3.org/2000/svg" xmlns:xlink="http://www.w3.org/1999/xlink">
    <!-- Generator: Sketch 42 (36781) - http://www.bohemiancoding.com/sketch -->
    <title>happy</title>
    <desc>Created with Sketch.</desc>
    <defs></defs>
    <g id="Icons" stroke="none" stroke-width="1" fill="none" fill-rule="evenodd">
        <g id="happy" fill="#050505">
            <path d="M2.03789498,13.9999297 C2.01278474,14.3299943 2,14.6635041 2,15 C2,22.1797017 7.82029825,28 15,28 C22.1797017,28 28,22.1797017 28,15 C28,14.1532215 27.9190397,13.3253523 27.7644375,12.5237108 C26.5615172,12.8346058 25.3000735,13 24,13 C18.8925268,13 14.3812644,10.4473179 11.6724293,6.54817028 C10.5487263,10.8251012 6.66346613,13.9827697 2.03789498,13.9999297 L2.03789498,13.9999297 Z M15,30 C23.2842712,30 30,23.2842712 30,15 C30,6.71572875 23.2842712,0 15,0 C6.71572875,0 0,6.71572875 0,15 C0,23.2842712 6.71572875,30 15,30 L15,30 Z M9.5,18 C10.3284271,18 11,17.3284271 11,16.5 C11,15.6715729 10.3284271,15 9.5,15 C8.67157288,15 8,15.6715729 8,16.5 C8,17.3284271 8.67157288,18 9.5,18 L9.5,18 Z M20.5,18 C19.6715729,18 19,17.3284271 19,16.5 C19,15.6715729 19.6715729,15 20.5,15 C21.3284271,15 22,15.6715729 22,16.5 C22,17.3284271 21.3284271,18 20.5,18 Z M20.2109315,21.1616157 C20.6321547,21.4516806 20.7745482,22.1593083 20.2109316,22.7872401 C18.9293954,24.2150146 17.0695835,25.1131538 15,25.1131538 C12.9327747,25.1131538 11.0748433,24.2170602 9.79345154,22.7921189 C9.26495393,22.2044156 9.41228446,21.4488104 9.79345155,21.1616157 C10.2164429,20.842908 10.9224284,21.0397949 11.2056697,21.3695236 C12.1226525,22.4370079 13.4823651,23.1131538 15,23.1131538 C16.485996,23.1131538 17.8205857,22.464906 18.7364052,21.4357739 C19.1241806,21.00002 19.8008088,20.8791948 20.2109315,21.1616157 Z" id="Oval-33"></path>
        </g>
    </g>
</svg>