<?xml version="1.0" encoding="UTF-8"?>
<svg width="30px" height="30px" viewBox="0 0 30 30" version="1.1" xmlns="http://www.w3.org/2000/svg" xmlns:xlink="http://www.w3.org/1999/xlink">
    <!-- Generator: Sketch 42 (36781) - http://www.bohemiancoding.com/sketch -->
    <title>heel-solid</title>
    <desc>Created with Sketch.</desc>
    <defs></defs>
    <g id="Icons" stroke="none" stroke-width="1" fill="none" fill-rule="evenodd">
        <g id="heel-solid" fill="#010101">
            <path d="M9.29663033,15.8593903 C10.115806,16.0540898 10.9439248,16.4743383 12,16.9999999 C17.027832,19.5026042 24.08645,21.8585479 24.08645,21.8585479 C24.08645,21.8585479 28,23.1434143 28,19.5026042 C28,16.4672153 24.0257241,15.1784569 24.0257241,15.1784569 C24.0257241,15.1784569 21.1426706,17.124611 19.3693895,16.3118572 C15.0715856,14.3420304 5.54577504,6.28402151 5.54577504,6.28402151 C4.69052958,5.57702324 4,5.89717939 4,7.00390626 C4,7.00390626 3.7726793,9.67294073 4.35668524,12.0948627 C4.7158504,13.584351 6,14.257938 6,16.3016357 L6,20.9962277 C6,21.5574078 6.44771525,22 7,22 C7.55613518,22 8,21.5536144 8,21.0029699 C8,21.0029699 8,17.8071059 8,16.7355841 C8,15.6640623 8.83743772,15.7502506 9.29663033,15.8593903 Z" id="Combined-Shape"></path>
        </g>
    </g>
</svg>