<?xml version="1.0" encoding="UTF-8"?>
<svg width="30px" height="30px" viewBox="0 0 30 30" version="1.1" xmlns="http://www.w3.org/2000/svg" xmlns:xlink="http://www.w3.org/1999/xlink">
  <path d="M21.9716308,19.2374825 C21.9901716,19.1613613 22,19.0818284 22,19 L22,9 C22,8.44771525 21.5522847,8 21,8 L9,8 C8.44771525,8 8,8.44771525 8,9 L8,19 C8,19.5522847 8.44771525,20 9,20 L9.41745874,20 L11.7468476,17.0117605 C12.0863899,16.5761811 12.7147503,16.4983276 13.1503297,16.83787 C13.2152267,16.8884584 13.2736318,16.9468635 13.3242202,17.0117605 L14.1199728,18.0325858 L16.7724625,14.9009211 C17.1294119,14.4794884 17.7604153,14.4272144 18.181848,14.7841638 C18.2239192,14.8197977 18.2629715,14.8588499 18.2986054,14.9009211 L21.9716308,19.2374825 L21.9716308,19.2374825 Z M8,6 L22,6 C23.1045695,6 24,6.8954305 24,8 L24,22 C24,23.1045695 23.1045695,24 22,24 L8,24 C6.8954305,24 6,23.1045695 6,22 L6,8 C6,6.8954305 6.8954305,6 8,6 Z M11.5,13 C10.6715729,13 10,12.3284271 10,11.5 C10,10.6715729 10.6715729,10 11.5,10 C12.3284271,10 13,10.6715729 13,11.5 C13,12.3284271 12.3284271,13 11.5,13 Z"></path>
</svg>
