<?xml version="1.0" encoding="UTF-8"?>
<svg width="30px" height="30px" viewBox="0 0 30 30" version="1.1" xmlns="http://www.w3.org/2000/svg" xmlns:xlink="http://www.w3.org/1999/xlink">
    <!-- Generator: Sketch 42 (36781) - http://www.bohemiancoding.com/sketch -->
    <title>import</title>
    <desc>Created with Sketch.</desc>
    <defs></defs>
    <g id="Icons" stroke="none" stroke-width="1" fill="none" fill-rule="evenodd">
        <g id="import" fill="#010101">
            <path d="M17,11.5867532 L23.2876518,5.29910136 C23.6867985,4.89995468 24.317288,4.90263012 24.7078123,5.29315441 C25.1010593,5.68640137 25.0956741,6.31950622 24.7018654,6.71331493 L18.4133374,13.0018428 L24.0066023,13.0018428 C24.5552407,13.0018428 25,13.4457077 25,14.0018428 C25,14.5541276 24.5446944,15.0018428 24.0081969,15.0018428 L16.9907951,15.0018428 C15.8913093,15.0018428 15,14.1036305 15,13.0110477 L15,5.99364595 C15,5.44588822 15.4438648,5.00184284 16,5.00184284 C16.5522847,5.00184284 17,5.44678913 17,5.99524053 L17,11.5867532 Z M21.9991283,23 C22.5518945,23 23,22.5562834 23,22.0001925 L23,18.9998075 C23,18.4476291 23.4438648,18 24,18 C24.5522847,18 25,18.4378814 25,19.0029293 L25,21.9907455 C25,23.6527109 23.656688,25 22.0057979,25 L7.99420208,25 C6.34054993,25 5,23.656688 5,22.0057979 L5,7.99420208 C5,6.34054993 6.34967041,5 8.00925446,5 L10.9970707,5 C11.5509732,5 12,5.44386482 12,6 C12,6.55228475 11.5562834,7 11.0001925,7 L7.99980749,7 C7.44762906,7 7,7.44463086 7,8.00087166 L7,21.9991283 C7,22.5518945 7.44463086,23 8.00087166,23 L21.9991283,23 Z" id="Combined-Shape"></path>
        </g>
    </g>
</svg>