<?xml version="1.0" encoding="UTF-8"?>
<svg width="30px" height="30px" viewBox="0 0 30 30" version="1.1" xmlns="http://www.w3.org/2000/svg" xmlns:xlink="http://www.w3.org/1999/xlink">
  <path d="M14.08,16 C14.2666676,15.4799974 14.3999996,15.0600016 14.48,14.74 C14.5600004,14.4199984 14.6,14.1666676 14.6,13.98 C14.6,13.7933324 14.5700003,13.6700003 14.51,13.61 C14.4499997,13.5499997 14.386667,13.52 14.32,13.52 C14.1733326,13.52 14.0133342,13.5899993 13.84,13.73 C13.6666658,13.8700007 13.4933342,14.0333324 13.32,14.22 C13.1466658,14.4066676 12.993334,14.5933324 12.86,14.78 C12.726666,14.9666676 12.6333336,15.1133328 12.58,15.22 L12,14.86 C12.1600008,14.5666652 12.3833319,14.2400018 12.67,13.88 C12.9566681,13.5199982 13.2799982,13.1866682 13.64,12.88 C14.0000018,12.5733318 14.3733314,12.3166677 14.76,12.11 C15.1466686,11.9033323 15.5133316,11.8 15.86,11.8 C16.193335,11.8 16.4433325,11.8966657 16.61,12.09 C16.7766675,12.2833343 16.86,12.6333308 16.86,13.14 C16.86,13.5266686 16.7433345,14.0466634 16.51,14.7 C16.2766655,15.3533366 15.9733352,16.1933282 15.6,17.22 L14.86,19.24 C14.8333332,19.306667 14.7966669,19.4099993 14.75,19.55 C14.7033331,19.6900007 14.6566669,19.8366659 14.61,19.99 C14.5633331,20.1433341 14.5233335,20.2933326 14.49,20.44 C14.4566665,20.5866674 14.44,20.7066662 14.44,20.8 C14.44,20.9200006 14.473333,21.0266662 14.54,21.12 C14.606667,21.2133338 14.7133326,21.26 14.86,21.26 C15.060001,21.26 15.2666656,21.1766675 15.48,21.01 C15.6933344,20.8433325 15.899999,20.6466678 16.1,20.42 C16.300001,20.1933322 16.4799992,19.9633345 16.64,19.73 C16.8000008,19.4966655 16.9199996,19.313334 17,19.18 L17.6,19.52 C17.4399992,19.8400016 17.2233347,20.1933314 16.95,20.58 C16.6766653,20.9666686 16.3666684,21.3233317 16.02,21.65 C15.6733316,21.9766683 15.2933354,22.2499989 14.88,22.47 C14.4666646,22.6900011 14.0400022,22.8 13.6,22.8 C13.2133314,22.8 12.9233343,22.700001 12.73,22.5 C12.5366657,22.299999 12.44,21.966669 12.44,21.5 C12.44,21.1133314 12.5033327,20.6966689 12.63,20.25 C12.7566673,19.8033311 12.9399988,19.2400034 13.18,18.56 L14.08,16 Z M17.02,8.52 C16.686665,8.52 16.3966679,8.4066678 16.15,8.18 C15.9033321,7.9533322 15.78,7.6600018 15.78,7.3 C15.78,6.9399982 15.8999988,6.6333346 16.14,6.38 C16.3800012,6.1266654 16.6733316,6 17.02,6 C17.3933352,6 17.6999988,6.1266654 17.94,6.38 C18.1800012,6.6333346 18.3,6.9333316 18.3,7.28 C18.3,7.6266684 18.1733346,7.9199988 17.92,8.16 C17.6666654,8.4000012 17.3666684,8.52 17.02,8.52 Z"></path>
</svg>
