<?xml version="1.0" encoding="UTF-8"?>
<svg width="30px" height="30px" viewBox="0 0 30 30" version="1.1" xmlns="http://www.w3.org/2000/svg" xmlns:xlink="http://www.w3.org/1999/xlink">
  <path d="M14.5459415,15.0459415 C15.650511,15.0459415 16.5459415,14.150511 16.5459415,13.0459415 L16.5459415,9.04594155 C16.5459415,7.94137205 15.650511,7.04594155 14.5459415,7.04594155 C13.441372,7.04594155 12.5459415,7.94137205 12.5459415,9.04594155 L12.5459415,11.4619852 C11.7496904,11.8098821 11.0615632,12.3591656 10.5459415,13.0454541 L10.5459415,9.04594155 C10.5459415,6.83680255 12.3368025,5.04594155 14.5459415,5.04594155 C16.7550805,5.04594155 18.5459415,6.83680255 18.5459415,9.04594155 L18.5459415,13.0459415 C18.5459415,15.2550803 16.7550809,17.0459411 14.5459423,17.0459415 C13.9936568,17.0459415 13.5459415,16.5982263 13.5459415,16.0459415 C13.5459415,15.4936568 13.9936568,15.0459415 14.5459415,15.0459415 L14.5459415,15.0459415 Z M14.5459415,14.0459415 C13.441372,14.0459415 12.5459415,14.941372 12.5459415,16.0459415 L12.5459415,20.0459415 C12.5459415,21.150511 13.441372,22.0459415 14.5459415,22.0459415 C15.650511,22.0459415 16.5459415,21.150511 16.5459415,20.0459415 L16.5459415,17.6298979 C17.3421927,17.282001 18.0303199,16.7327174 18.5459415,16.046429 L18.5459415,20.0459415 C18.5459415,22.2550805 16.7550805,24.0459415 14.5459415,24.0459415 C12.3368025,24.0459415 10.5459415,22.2550805 10.5459415,20.0459415 L10.5459415,16.0459415 C10.5459415,13.8368028 12.3368021,12.0459419 14.5459408,12.0459415 C15.0982263,12.0459415 15.5459415,12.4936568 15.5459415,13.0459415 C15.5459415,13.5982263 15.0982263,14.0459415 14.5459415,14.0459415 L14.5459415,14.0459415 Z" transform="translate(14.545942, 14.545942) rotate(45.000000) translate(-14.545942, -14.545942) "></path>
</svg>
