<?xml version="1.0" encoding="UTF-8"?>
<svg width="30px" height="30px" viewBox="0 0 30 30" version="1.1" xmlns="http://www.w3.org/2000/svg" xmlns:xlink="http://www.w3.org/1999/xlink">
    <!-- Generator: Sketch 42 (36781) - http://www.bohemiancoding.com/sketch -->
    <title>location</title>
    <desc>Created with Sketch.</desc>
    <defs></defs>
    <g id="Icons" stroke="none" stroke-width="1" fill="none" fill-rule="evenodd">
        <g id="location" fill="#050505">
            <path d="M13.8326338,26.3826322 C13.8326338,26.3826322 6,15.9705627 6,11 C6,6.02943725 10.0294373,2 15,2 C19.9705627,2 24,6.02943725 24,11 C24,15.9705627 16.1673662,26.3826322 16.1673662,26.3826322 C15.5293907,27.2764761 14.4773524,27.2758798 13.8326338,26.3826322 Z M14.4389934,24.1675164 C14.7488288,24.6272844 15.2491337,24.6337053 15.5610066,24.1675164 C15.5610066,24.1675164 22,14.8659932 22,11 C22,7.13400675 18.8659932,4 15,4 C11.1340068,4 8,7.13400675 8,11 C8,14.8659932 14.4389934,24.1675164 14.4389934,24.1675164 Z M15,14 C13.3431458,14 12,12.6568542 12,11 C12,9.34314575 13.3431458,8 15,8 C16.6568542,8 18,9.34314575 18,11 C18,12.6568542 16.6568542,14 15,14 Z" id="Oval-24"></path>
        </g>
    </g>
</svg>