<?xml version="1.0" encoding="UTF-8"?>
<svg width="30px" height="30px" viewBox="0 0 30 30" version="1.1" xmlns="http://www.w3.org/2000/svg" xmlns:xlink="http://www.w3.org/1999/xlink">
    <!-- Generator: Sketch 42 (36781) - http://www.bohemiancoding.com/sketch -->
    <title>lock</title>
    <desc>Created with Sketch.</desc>
    <defs></defs>
    <g id="Icons" stroke="none" stroke-width="1" fill="none" fill-rule="evenodd">
        <g id="lock" fill="#010101">
            <path d="M8.99922997,12 C6.79246765,12 5,13.7891609 5,15.9962027 L5,24.0037973 C5,26.2111696 6.79051625,28 8.99922997,28 L21.00077,28 C23.2075324,28 25,26.2108391 25,24.0037973 L25,15.9962027 C25,13.7888304 23.2094838,12 21.00077,12 L21,8 C21,4.6862915 18.3137085,2 15,2 C11.6862915,2 9,4.6862915 9,8 L9,11.9906311 C9,11.9937578 9.00001366,11.9968808 9.00004093,12 L8.99922997,12 Z M10.9999582,12 L19,12 L19,8 C19,5.790861 17.209139,4 15,4 C12.790861,4 11,5.790861 11,8 L11,11.9906311 C11,11.9937574 10.999986,11.9968804 10.9999582,12 L10.9999582,12 Z M7,16.0085302 C7,14.8992496 7.89451376,14 8.99406028,14 L21.0059397,14 C22.1072288,14 23,14.9019504 23,16.0085302 L23,23.9914698 C23,25.1007504 22.1054862,26 21.0059397,26 L8.99406028,26 C7.8927712,26 7,25.0980496 7,23.9914698 L7,16.0085302 Z M16.157756,20.6310241 L16.157756,20.6310241 C16.6674845,20.2685476 17,19.6731054 17,19 C17,17.8954305 16.1045695,17 15,17 C13.8954305,17 13,17.8954305 13,19 C13,19.6731054 13.3325155,20.2685476 13.842244,20.6310241 L13.4853534,22.0585863 C13.2169851,23.1320596 13.8954305,24 15,24 C16.1122704,24 16.7826999,23.1307995 16.5146466,22.0585863 L16.157756,20.6310241 Z" id="Combined-Shape"></path>
        </g>
    </g>
</svg>