<?xml version="1.0" encoding="UTF-8"?>
<svg width="30px" height="30px" viewBox="0 0 30 30" version="1.1" xmlns="http://www.w3.org/2000/svg" xmlns:xlink="http://www.w3.org/1999/xlink">
    <!-- Generator: Sketch 42 (36781) - http://www.bohemiancoding.com/sketch -->
    <title>love</title>
    <desc>Created with Sketch.</desc>
    <defs></defs>
    <g id="Icons" stroke="none" stroke-width="1" fill="none" fill-rule="evenodd">
        <g id="love" fill="#050505">
            <path d="M27.3473634,15.9503638 C22.9008487,20.3968784 16.4397144,26.6114668 16.4397144,26.6114668 C15.6425429,27.3808192 14.3554179,27.3783325 13.5602856,26.6114668 C13.5602856,26.6114668 7.09915127,20.3968784 2.65263664,15.9503638 C1.02411754,14.4859154 0,12.3625554 0,10 C0,5.581722 3.581722,2 8,2 C11.0120267,2 13.6352711,3.66457529 15,6.12399283 C15.6823645,4.89428406 16.6793578,3.86328585 17.8822633,3.13971484 C19.0851689,2.41614382 20.4939866,2 22,2 C26.418278,2 30,5.581722 30,10 C30,12.3625554 28.9758825,14.4859154 27.3473634,15.9503638 Z M13.6518254,7.98096786 C12.8228029,5.66053016 10.6053203,4 8,4 C4.6862915,4 2,6.6862915 2,10 C2,11.5311824 2.57355939,12.9284028 3.51755112,13.9885342 L14.204637,24.8501439 C14.5883964,25.2401703 15.2197401,25.2373779 15.6107678,24.8479056 L26,14.4999998 C27.2203527,13.3883032 28,11.7851998 28,10 C28,6.6862915 25.3137085,4 22,4 C19.3740278,4 17.1420662,5.68695999 16.3287223,8.0362729 C16.3287223,8.0362729 16,9 15,9 C14,9 13.7108791,8.14625967 13.6518254,7.98096786 Z" id="Rectangle-114"></path>
        </g>
    </g>
</svg>