<?xml version="1.0" encoding="UTF-8"?>
<svg width="30px" height="30px" viewBox="0 0 30 30" version="1.1" xmlns="http://www.w3.org/2000/svg" xmlns:xlink="http://www.w3.org/1999/xlink">
    <!-- Generator: Sketch 42 (36781) - http://www.bohemiancoding.com/sketch -->
    <title>love-solid</title>
    <desc>Created with Sketch.</desc>
    <defs></defs>
    <g id="Icons" stroke="none" stroke-width="1" fill="none" fill-rule="evenodd">
        <g id="love-solid" fill="#050505">
            <path d="M27.3473634,15.9503638 C28.9758825,14.4859154 30,12.3625554 30,10 C30,5.581722 26.418278,2 22,2 C20.4939866,2 19.0851689,2.41614382 17.8822633,3.13971484 C16.6793578,3.86328585 15.6823645,4.89428406 15,6.12399283 C13.6352711,3.66457529 11.0120267,2 8,2 C3.581722,2 0,5.581722 0,10 C0,12.3625554 1.02411754,14.4859154 2.65263664,15.9503638 C7.09915127,20.3968784 13.5602856,26.6114668 13.5602856,26.6114668 C14.3554179,27.3783325 15.6425429,27.3808192 16.4397144,26.6114668 C16.4397144,26.6114668 22.9008487,20.3968784 27.3473634,15.9503638 Z" id="Rectangle-114"></path>
        </g>
    </g>
</svg>