<?xml version="1.0" encoding="UTF-8"?>
<svg width="30px" height="30px" viewBox="0 0 30 30" version="1.1" xmlns="http://www.w3.org/2000/svg" xmlns:xlink="http://www.w3.org/1999/xlink">
    <g id="Icons" stroke="none" stroke-width="1" fill="none" fill-rule="evenodd">
        <g id="photo-solid" fill="#050505">
            <path d="M9,6 L3.9992748,6 C1.78679466,6 0,7.79051625 0,9.99922997 L0,22.00077 C0,24.2075324 1.79053632,26 3.9992748,26 L26.0007252,26 C28.2132053,26 30,24.2094838 30,22.00077 L30,9.99922997 C30,7.79246765 28.2094637,6 26.0007252,6 L21,6 C21,5.44386482 20.5511774,5 19.9975267,5 L10.0024733,5 C9.45576096,5 9,5.44771525 9,6 L9,6 Z M19,8 L19,7.50468445 C19,7.21403503 18.7759472,7 18.4995642,7 L11.5004358,7 C11.2307968,7 11,7.22595492 11,7.50468445 L11,8 L3.00329963,8 C2.45127869,8 2,8.44771525 2,9 L2,10 L28,10 L28,9 C28,8.44386482 27.5508075,8 26.9967004,8 L19,8 L19,8 Z M15,23 C18.3137085,23 21,20.3137085 21,17 C21,13.6862915 18.3137085,11 15,11 C11.6862915,11 9,13.6862915 9,17 C9,20.3137085 11.6862915,23 15,23 L15,23 Z M15,21 C17.209139,21 19,19.209139 19,17 C19,14.790861 17.209139,13 15,13 C12.790861,13 11,14.790861 11,17 C11,19.209139 12.790861,21 15,21 L15,21 Z M15,19.5 C13.6192881,19.5 12.5,18.3807119 12.5,17 C12.5,16.7238576 12.7238576,16.5 13,16.5 C13.2761424,16.5 13.5,16.7238576 13.5,17 C13.5,17.8284271 14.1715729,18.5 15,18.5 C15.2761424,18.5 15.5,18.7238576 15.5,19 C15.5,19.2761424 15.2761424,19.5 15,19.5 L15,19.5 Z" id="Rectangle-8"></path>
        </g>
    </g>
</svg>
