<?xml version="1.0" encoding="UTF-8"?>
<svg width="30px" height="30px" viewBox="0 0 30 30" version="1.1" xmlns="http://www.w3.org/2000/svg" xmlns:xlink="http://www.w3.org/1999/xlink">
    <!-- Generator: Sketch 42 (36781) - http://www.bohemiancoding.com/sketch -->
    <title>photo</title>
    <desc>Created with Sketch.</desc>
    <defs></defs>
    <g id="Icons" stroke="none" stroke-width="1" fill="none" fill-rule="evenodd">
        <g id="photo" fill="#050505">
            <path d="M9,6 C9,5.44771525 9.45576096,5 10.0024733,5 L19.9975267,5 C20.5511774,5 21,5.44386482 21,6 L26.0007252,6 C28.2094637,6 30,7.79246765 30,9.99922997 L30,22.00077 C30,24.2094838 28.2132053,26 26.0007252,26 L3.9992748,26 C1.79053632,26 0,24.2075324 0,22.00077 L0,9.99922997 C0,7.79051625 1.78679466,6 3.9992748,6 L9,6 Z M2,10 L2,21.9941413 C2,23.1029399 2.89408944,24 3.99700466,24 L26.0029953,24 C27.1050211,24 28,23.1019465 28,21.9941413 L28,10 L2,10 Z M15,23 C18.3137085,23 21,20.3137085 21,17 C21,13.6862915 18.3137085,11 15,11 C11.6862915,11 9,13.6862915 9,17 C9,20.3137085 11.6862915,23 15,23 L15,23 Z M15,21 C17.209139,21 19,19.209139 19,17 C19,14.790861 17.209139,13 15,13 C12.790861,13 11,14.790861 11,17 C11,19.209139 12.790861,21 15,21 L15,21 Z M15,19.5 C13.6192881,19.5 12.5,18.3807119 12.5,17 C12.5,16.7238576 12.7238576,16.5 13,16.5 C13.2761424,16.5 13.5,16.7238576 13.5,17 C13.5,17.8284271 14.1715729,18.5 15,18.5 C15.2761424,18.5 15.5,18.7238576 15.5,19 C15.5,19.2761424 15.2761424,19.5 15,19.5 L15,19.5 Z" id="Combined-Shape"></path>
        </g>
    </g>
</svg>