<?xml version="1.0" encoding="UTF-8"?>
<svg width="30px" height="30px" viewBox="0 0 30 30" version="1.1" xmlns="http://www.w3.org/2000/svg" xmlns:xlink="http://www.w3.org/1999/xlink">
    <!-- Generator: Sketch 42 (36781) - http://www.bohemiancoding.com/sketch -->
    <title>piggy-bank-solid</title>
    <desc>Created with Sketch.</desc>
    <defs></defs>
    <g id="Icons" stroke="none" stroke-width="1" fill="none" fill-rule="evenodd">
        <g id="piggy-bank-solid" fill="#050505">
            <path d="M17.0202274,26.8739709 C16.3618781,26.9569373 15.6871653,27 15,27 C14.6527715,27 14.3087226,26.9890046 13.9683578,26.9674215 C13.7373111,28.679791 12.2692848,30 10.5,30 C8.56700338,30 7,28.4323196 7,26.4945942 L7,24.7769759 C4.27662052,23.0573513 2.42364205,20.4799805 2.06393634,17.5479522 L0.799845994,16.5998845 C0.358103249,16.2685774 0,15.5561351 0,15 C0,14.4477152 0.395154817,14.2147555 0.882796988,14.4736289 C0.882796988,14.4736289 1.65885349,14.9147133 2,15 C2.03902357,15.0097559 2.0819425,15.0177618 2.12738528,15.0242881 C3.01555979,9.92401121 8.44042156,6 15,6 C16.1572583,6 17.2791986,6.12213468 18.3471401,6.35131575 C18.7075428,5.96942004 19.2153046,5.61320842 19.2153046,5.61320842 C19.6486799,5.27454276 20.4509752,4.99999999 20.990778,5 L24.0020869,5 C25.1055038,5 25.4774399,5.73423004 24.8658286,6.65826499 C24.8658286,6.65826499 24.1764152,7.52352318 23.6357229,8.65132913 C24.9647372,9.60596524 26.0496491,10.777484 26.8053525,12.0971458 C27.025541,12.0338854 27.2585377,12 27.5,12 C28.8807119,12 30,13.1123657 30,14.5093004 L30,17.4906996 C30,18.876548 28.8903379,20 27.5,20 C27.4207544,20 27.34237,19.9963357 27.265009,19.9891636 C26.5784587,21.5635729 25.4403699,22.9660455 23.9763221,24.0951517 C23.9919602,24.2297111 24,24.3666091 24,24.5054058 L24,26.4945942 C24,28.4305764 22.4290634,30 20.5,30 C18.6948846,30 17.2089383,28.6328843 17.0202274,26.8739709 L17.0202274,26.8739709 Z M15.8683165,5.02175855 L15.8683165,5.02175855 C15.5811318,5.00732341 15.2916071,5 15,5 C12.7267831,5 10.5801077,5.44504025 8.68205684,6.2348381 C8.25141931,5.59674825 8,4.82773519 8,4 C8,1.790861 9.790861,0 12,0 C14.209139,0 16,1.790861 16,4 C16,4.35314379 15.9542365,4.69559895 15.8683165,5.02175855 Z M19.5,16 C20.3284271,16 21,15.3284271 21,14.5 C21,13.6715729 20.3284271,13 19.5,13 C18.6715729,13 18,13.6715729 18,14.5 C18,15.3284271 18.6715729,16 19.5,16 Z" id="Combined-Shape"></path>
        </g>
    </g>
</svg>