<?xml version="1.0" encoding="UTF-8"?>
<svg width="30px" height="30px" viewBox="0 0 30 30" version="1.1" xmlns="http://www.w3.org/2000/svg" xmlns:xlink="http://www.w3.org/1999/xlink">
  <path d="M18.854,11.924 C18.3259974,12.3346687 17.9190014,12.7489979 17.633,13.167 C17.3469986,13.5850021 17.204,13.9773315 17.204,14.344 C17.262667,14.3146665 17.3396662,14.2963334 17.435,14.289 C17.5303338,14.2816666 17.6146663,14.278 17.688,14.278 C18.025335,14.278 18.3076655,14.4136653 18.535,14.685 C18.7623345,14.9563347 18.876,15.289998 18.876,15.686 C18.876,16.1700024 18.7146683,16.5733317 18.392,16.896 C18.0693317,17.2186683 17.6660024,17.38 17.182,17.38 C16.6686641,17.38 16.2653348,17.1930019 15.972,16.819 C15.6786652,16.4449981 15.532,15.9426698 15.532,15.312 C15.532,14.5639963 15.7593311,13.823337 16.214,13.09 C16.6686689,12.356663 17.3359956,11.6600033 18.216,11 L18.854,11.924 Z M14.322,11.924 C13.7939974,12.3346687 13.3870014,12.7489979 13.101,13.167 C12.8149986,13.5850021 12.672,13.9773315 12.672,14.344 C12.730667,14.3146665 12.8076662,14.2963334 12.903,14.289 C12.9983338,14.2816666 13.0826663,14.278 13.156,14.278 C13.493335,14.278 13.7756655,14.4136653 14.003,14.685 C14.2303345,14.9563347 14.344,15.289998 14.344,15.686 C14.344,16.1700024 14.1826683,16.5733317 13.86,16.896 C13.5373317,17.2186683 13.1340024,17.38 12.65,17.38 C12.1366641,17.38 11.7333348,17.1930019 11.44,16.819 C11.1466652,16.4449981 11,15.9426698 11,15.312 C11,14.5639963 11.2273311,13.823337 11.682,13.09 C12.1366689,12.356663 12.8039956,11.6600033 13.684,11 L14.322,11.924 Z"></path>
</svg>
