<?xml version="1.0" encoding="UTF-8"?>
<svg width="30px" height="30px" viewBox="0 0 30 30" version="1.1" xmlns="http://www.w3.org/2000/svg" xmlns:xlink="http://www.w3.org/1999/xlink">
    <!-- Generator: Sketch 42 (36781) - http://www.bohemiancoding.com/sketch -->
    <title>right-arrow</title>
    <desc>Created with Sketch.</desc>
    <defs></defs>
    <g id="Icons" stroke="none" stroke-width="1" fill="none" fill-rule="evenodd">
        <g id="right-arrow" fill="#010101">
            <path d="M18.9004927,15.6561856 L14.9466962,19.6099821 C14.5588825,19.9977958 14.5608405,20.6290028 14.9513647,21.0195271 C15.3446117,21.4127741 15.972459,21.4126464 16.3597822,21.0253232 L21.3218346,16.0632708 C22.0944073,15.2906982 22.0992885,14.0253152 21.3218346,13.2478614 L16.3597822,8.28580898 C15.9804212,7.90644794 15.341889,7.90108077 14.9513647,8.29160506 C14.5581178,8.68485202 14.5587503,9.31320415 14.9466962,9.70115008 L18.9017317,13.6561856 L10.0084103,13.6561856 C9.45148065,13.6561856 9,14.1000504 9,14.6561856 C9,15.2084704 9.4439316,15.6561856 10.0084103,15.6561856 L18.9004927,15.6561856 L18.9004927,15.6561856 L18.9004927,15.6561856 Z" id="Combined-Shape"></path>
        </g>
    </g>
</svg>