<?xml version="1.0" encoding="UTF-8"?>
<svg width="30px" height="30px" viewBox="0 0 30 30" version="1.1" xmlns="http://www.w3.org/2000/svg" xmlns:xlink="http://www.w3.org/1999/xlink">
    <!-- Generator: Sketch 42 (36781) - http://www.bohemiancoding.com/sketch -->
    <title>safe-zone</title>
    <desc>Created with Sketch.</desc>
    <defs></defs>
    <g id="Icons" stroke="none" stroke-width="1" fill="none" fill-rule="evenodd">
        <g id="safe-zone" fill="#050505">
            <path d="M15,30 C23.2842712,30 30,23.2842712 30,15 C30,6.71572875 23.2842712,0 15,0 C6.71572875,0 0,6.71572875 0,15 C0,23.2842712 6.71572875,30 15,30 L15,30 Z M15,28 C22.1797017,28 28,22.1797017 28,15 C28,7.82029825 22.1797017,2 15,2 C7.82029825,2 2,7.82029825 2,15 C2,22.1797017 7.82029825,28 15,28 L15,28 Z M5.56925129,12.4222346 C4.42643536,10.5321866 5.28563292,9 7.50629425,9 L22.4937057,9 C24.706321,9 25.5783464,10.5242783 24.4307487,12.4222346 L17.0692513,24.5970589 C15.9264354,26.4871069 14.0783464,26.4950151 12.9307487,24.5970589 L5.56925129,12.4222346 L5.56925129,12.4222346 Z M7.51260579,11.8670518 C7.22950143,11.3881923 7.44463086,11 8.00087166,11 L21.9991283,11 C22.5518945,11 22.7692032,11.3903834 22.4873942,11.8670518 L15.5126058,23.6646216 C15.2295014,24.1434811 14.7692032,24.14129 14.4873942,23.6646216 L7.51260579,11.8670518 L7.51260579,11.8670518 Z" id="Combined-Shape"></path>
        </g>
    </g>
</svg>