<?xml version="1.0" encoding="UTF-8"?>
<svg width="30px" height="30px" viewBox="0 0 30 30" version="1.1" xmlns="http://www.w3.org/2000/svg" xmlns:xlink="http://www.w3.org/1999/xlink">
    <!-- Generator: Sketch 42 (36781) - http://www.bohemiancoding.com/sketch -->
    <title>search</title>
    <desc>Created with Sketch.</desc>
    <defs></defs>
    <g id="Icons" stroke="none" stroke-width="1" fill="none" fill-rule="evenodd">
        <g id="search" fill="#050505">
            <path d="M16.90762,18.3189204 C13.7691321,20.7627702 9.22837295,20.5420815 6.34314575,17.6568542 C3.21895142,14.5326599 3.21895142,9.46734008 6.34314575,6.34314575 C9.46734008,3.21895142 14.5326599,3.21895142 17.6568542,6.34314575 C20.5420658,9.22835732 20.7627678,13.7690829 18.3189602,16.9075689 C18.3348875,16.9216239 18.3504801,16.9362665 18.3657099,16.9514964 L25.43328,24.0190664 C25.819864,24.4056504 25.8255531,25.0445046 25.4350288,25.4350288 C25.0417819,25.8282758 24.4105566,25.8247701 24.0190664,25.43328 L16.9514964,18.3657099 C16.9362805,18.3504941 16.9216547,18.3348874 16.90762,18.3189204 L16.90762,18.3189204 L16.90762,18.3189204 Z M16.2426407,16.2426407 C13.8994949,18.5857864 10.1005051,18.5857864 7.75735931,16.2426407 C5.41421356,13.8994949 5.41421356,10.1005051 7.75735931,7.75735931 C10.1005051,5.41421356 13.8994949,5.41421356 16.2426407,7.75735931 C18.5857864,10.1005051 18.5857864,13.8994949 16.2426407,16.2426407 L16.2426407,16.2426407 L16.2426407,16.2426407 Z" id="Combined-Shape"></path>
        </g>
    </g>
</svg>