<?xml version="1.0" encoding="UTF-8"?>
<svg width="30px" height="30px" viewBox="0 0 30 30" version="1.1" xmlns="http://www.w3.org/2000/svg" xmlns:xlink="http://www.w3.org/1999/xlink">
    <!-- Generator: Sketch 42 (36781) - http://www.bohemiancoding.com/sketch -->
    <title>settings-solid</title>
    <desc>Created with Sketch.</desc>
    <defs></defs>
    <g id="Icons" stroke="none" stroke-width="1" fill="none" fill-rule="evenodd">
        <g id="settings-solid" fill="#010101">
            <path d="M9.17070571,24 C9.58254212,25.1651924 10.6937812,26 12,26 C13.6568542,26 15,24.6568542 15,23 C15,22.8246823 14.9849614,22.652877 14.956104,22.4858038 C14.9272465,22.3187306 14.88457,22.1563895 14.8292943,22 L27.004543,22 C27.5543187,22 28,22.4438648 28,23 C28,23.5522847 27.5447371,24 27.004543,24 L14.8292943,24 C14.9398458,23.6872211 15,23.3506354 15,23 C15,22.8246823 14.9849614,22.652877 14.956104,22.4858038 L14.956104,22.4858038 C14.7122414,21.0739381 13.4815365,20 12,20 C10.6937812,20 9.5825421,20.8348076 9.1707057,22 L3.99545703,22 C3.45526288,22 3,22.4477153 3,23 C3,23.5561352 3.44568129,24 3.99545703,24 L9.17070571,24 L9.17070571,24 Z M19.1707057,16 C19.5825421,17.1651924 20.6937812,18 22,18 C23.6568542,18 25,16.6568542 25,15 C25,14.8246823 24.9849614,14.652877 24.956104,14.4858038 C24.9272465,14.3187306 24.88457,14.1563895 24.8292943,14 L27.004543,14 C27.5543187,14 28,14.4438648 28,15 C28,15.5522847 27.5447371,16 27.004543,16 L24.8292943,16 C24.9398458,15.6872211 25,15.3506354 25,15 C25,14.8246823 24.9849614,14.652877 24.956104,14.4858038 L24.956104,14.4858038 C24.7122414,13.0739381 23.4815365,12 22,12 C20.6937812,12 19.5825421,12.8348076 19.1707057,14 L3.99545703,14 C3.45526288,14 3,14.4477153 3,15 C3,15.5561352 3.44568129,16 3.99545703,16 L19.1707057,16 L19.1707057,16 Z M6.17070571,8 C6.58254212,9.16519237 7.69378117,10 9,10 C10.6568542,10 12,8.65685425 12,7 C12,6.82468229 11.9849614,6.65287702 11.956104,6.48580381 C11.9272465,6.31873061 11.88457,6.15638946 11.8292943,6 L27.004543,6 C27.5543187,6 28,6.44386482 28,7 C28,7.55228475 27.5447371,8 27.004543,8 L11.8292943,8 C11.9398458,7.68722107 12,7.35063542 12,7 C12,6.82468229 11.9849614,6.65287702 11.956104,6.48580381 C11.7122414,5.07393813 10.4815365,4 9,4 C7.69378117,4 6.5825421,4.83480764 6.1707057,6.00000002 L3.99545703,6 C3.45526288,6 3,6.44771525 3,7 C3,7.55613518 3.44568129,8 3.99545703,8 L6.17070571,8 L6.17070571,8 Z" id="Combined-Shape"></path>
        </g>
    </g>
</svg>