<?xml version="1.0" encoding="UTF-8"?>
<svg width="30px" height="30px" viewBox="0 0 30 30" version="1.1" xmlns="http://www.w3.org/2000/svg" xmlns:xlink="http://www.w3.org/1999/xlink">
  <g class="spinner"><rect transform="translate(7.928932, 7.928932) rotate(45.000000) translate(-7.928932, -7.928932)" x="4.92893219" y="6.92893219" width="6" height="2" rx="1"></rect><rect x="2" y="14" width="6" height="2" rx="1"></rect><rect transform="translate(7.928932, 22.071068) rotate(-45.000000) translate(-7.928932, -22.071068) " x="4.92893219" y="21.0710678" width="6" height="2" rx="1"></rect><rect transform="translate(15.000000, 25.000000) rotate(90.000000) translate(-15.000000, -25.000000) " x="12" y="24" width="6" height="2" rx="1"></rect><rect transform="translate(22.071068, 22.071068) rotate(45.000000) translate(-22.071068, -22.071068) " x="19.0710678" y="21.0710678" width="6" height="2" rx="1"></rect><rect x="22" y="14" width="6" height="2" rx="1"></rect><rect transform="translate(22.071068, 7.928932) rotate(-45.000000) translate(-22.071068, -7.928932) " x="19.0710678" y="6.92893219" width="6" height="2" rx="1"></rect><rect transform="translate(15.000000, 5.000000) rotate(90.000000) translate(-15.000000, -5.000000) " x="12" y="4" width="6" height="2" rx="1"></rect></g>
</svg>
