<?xml version="1.0" encoding="UTF-8"?>
<svg width="30px" height="30px" viewBox="0 0 30 30" version="1.1" xmlns="http://www.w3.org/2000/svg" xmlns:xlink="http://www.w3.org/1999/xlink">
    <!-- Generator: Sketch 42 (36781) - http://www.bohemiancoding.com/sketch -->
    <title>sun</title>
    <desc>Created with Sketch.</desc>
    <defs></defs>
    <g id="Icons" stroke="none" stroke-width="1" fill="none" fill-rule="evenodd">
        <g id="sun" fill="#050505">
            <path d="M15,24 C19.9705627,24 24,19.9705627 24,15 C24,10.0294373 19.9705627,6 15,6 C10.0294373,6 6,10.0294373 6,15 C6,19.9705627 10.0294373,24 15,24 L15,24 L15,24 Z M15,22 C18.8659932,22 22,18.8659932 22,15 C22,11.1340068 18.8659932,8 15,8 C11.1340068,8 8,11.1340068 8,15 C8,18.8659932 11.1340068,22 15,22 L15,22 Z M14.3898842,1.48157882 C14.4489884,1.21561017 14.7288353,0.999999973 14.9969018,0.999999973 C15.2730441,0.999999973 15.5451338,1.21704435 15.6039193,1.48157884 L16.2799167,4.5235673 C16.3997543,5.06283639 16.0542415,5.50000032 15.4979453,5.50000028 L14.4958583,5.5000002 C13.9441498,5.50000016 13.5927859,5.06852119 13.7138868,4.52356711 L14.3898842,1.48157882 L14.3898842,1.48157882 Z M14.3898842,28.5184215 C14.4489884,28.7843901 14.7288353,29.0000003 14.9969018,29.0000003 C15.2730441,29.0000003 15.5451338,28.7829559 15.6039193,28.5184214 L16.2799167,25.476433 C16.3997543,24.9371639 16.0542415,24.5 15.4979453,24.5 L14.4958583,24.5000001 C13.9441498,24.5000001 13.5927859,24.9314791 13.7138868,25.4764332 L14.3898842,28.5184215 L14.3898842,28.5184215 Z M21.2308348,2.98764595 C21.4150049,2.78686242 21.7651645,2.740062 21.9973169,2.8740952 C22.2364632,3.01216639 22.3635776,3.33617718 22.28222,3.5946635 L21.3466568,6.5671015 C21.1808046,7.09404102 20.6629998,7.2998797 20.1812331,7.02173154 L19.3134004,6.52068801 C18.8356069,6.24483373 18.7470563,5.69548003 19.1244098,5.2840864 L21.2308348,2.98764595 L21.2308348,2.98764595 Z M7.71241351,26.4022385 C7.63061488,26.6621262 7.76516437,26.9887736 7.99731668,27.1228068 C8.236463,27.260878 8.58062178,27.2089569 8.76379872,27.009256 L10.8702239,24.7128155 C11.2436408,24.3057135 11.163,23.7543621 10.6812332,23.476214 L9.81340048,22.9751706 C9.33560688,22.6993164 8.81557734,22.8973062 8.64797676,23.4298007 L7.71241351,26.4022385 L7.71241351,26.4022385 Z M26.4022383,7.71241365 C26.662126,7.63061502 26.9887733,7.76516451 27.1228066,7.99731682 C27.2608777,8.23646314 27.2089567,8.58062192 27.0092558,8.76379886 L24.7128152,10.8702241 C24.3057133,11.243641 23.7543618,11.1630001 23.4762137,10.6812334 L22.9751703,9.81340062 C22.6993161,9.33560702 22.8973059,8.81557748 23.4298004,8.6479769 L26.4022383,7.71241365 L26.4022383,7.71241365 Z M2.98764571,21.230835 C2.78686217,21.415005 2.74006175,21.7651647 2.87409496,21.997317 C3.01216614,22.2364633 3.33617694,22.3635777 3.59466325,22.2822202 L6.56710126,21.3466569 C7.09404078,21.1808047 7.29987946,20.6629999 7.0217313,20.1812332 L6.52068777,19.3134006 C6.24483348,18.835607 5.69547979,18.7470564 5.28408616,19.1244099 L2.98764571,21.230835 L2.98764571,21.230835 Z M28.5184212,14.3898842 C28.7843898,14.4489884 29,14.7288353 29,14.9969018 C29,15.2730441 28.7829557,15.5451338 28.5184212,15.6039193 L25.4764327,16.2799167 C24.9371636,16.3997543 24.4999997,16.0542415 24.4999997,15.4979453 L24.4999998,14.4958583 C24.4999998,13.9441498 24.9314788,13.5927859 25.4764329,13.7138868 L28.5184212,14.3898842 L28.5184212,14.3898842 Z M1.48157854,14.3898842 C1.21560988,14.4489884 0.999999692,14.7288353 0.999999692,14.9969018 C0.999999692,15.2730441 1.21704406,15.5451338 1.48157856,15.6039193 L4.52356701,16.2799167 C5.0628361,16.3997543 5.50000004,16.0542415 5.5,15.4979453 L5.49999992,14.4958583 C5.49999988,13.9441498 5.06852091,13.5927859 4.52356683,13.7138868 L1.48157854,14.3898842 L1.48157854,14.3898842 Z M27.012354,21.2308348 C27.2131376,21.4150049 27.259938,21.7651645 27.1259048,21.9973169 C26.9878336,22.2364632 26.6638228,22.3635776 26.4053365,22.28222 L23.4328985,21.3466568 C22.905959,21.1808046 22.7001203,20.6629998 22.9782685,20.1812331 L23.479312,19.3134004 C23.7551663,18.8356069 24.30452,18.7470563 24.7159136,19.1244098 L27.012354,21.2308348 L27.012354,21.2308348 Z M3.59776148,7.71241351 C3.3378738,7.63061488 3.01122641,7.76516437 2.87719321,7.99731668 C2.73912202,8.236463 2.7910431,8.58062178 2.99074397,8.76379872 L5.28718453,10.8702239 C5.69428647,11.2436408 6.24563794,11.163 6.52378603,10.6812332 L7.02482943,9.81340048 C7.30068364,9.33560688 7.10269384,8.81557734 6.57019931,8.64797676 L3.59776148,7.71241351 L3.59776148,7.71241351 Z M22.2875863,26.4022383 C22.369385,26.662126 22.2348355,26.9887733 22.0026832,27.1228066 C21.7635369,27.2608777 21.4193781,27.2089567 21.2362011,27.0092558 L19.1297759,24.7128152 C18.756359,24.3057133 18.8369999,23.7543618 19.3187666,23.4762137 L20.1865994,22.9751703 C20.664393,22.6993161 21.1844225,22.8973059 21.3520231,23.4298004 L22.2875863,26.4022383 L22.2875863,26.4022383 Z M8.76916502,2.98764571 C8.58499501,2.78686217 8.23483533,2.74006175 8.00268301,2.87409496 C7.7635367,3.01216614 7.63642228,3.33617694 7.71777984,3.59466325 L8.6533431,6.56710126 C8.81919526,7.09404078 9.33700009,7.29987946 9.81876675,7.0217313 L10.6865994,6.52068777 C11.164393,6.24483348 11.2529436,5.69547979 10.8755901,5.28408616 L8.76916502,2.98764571 L8.76916502,2.98764571 Z" id="Combined-Shape"></path>
        </g>
    </g>
</svg>