<?xml version="1.0" encoding="UTF-8"?>
<svg width="30px" height="30px" viewBox="0 0 30 30" version="1.1" xmlns="http://www.w3.org/2000/svg" xmlns:xlink="http://www.w3.org/1999/xlink">
    <!-- Generator: Sketch 42 (36781) - http://www.bohemiancoding.com/sketch -->
    <title>twitter</title>
    <desc>Created with Sketch.</desc>
    <defs></defs>
    <g id="Icons" stroke="none" stroke-width="1" fill="none" fill-rule="evenodd">
        <g id="twitter" fill="#050505">
            <path d="M28.9999987,7.5012 C28.0434587,7.92552 27.0152887,8.21217 25.9364187,8.34113 C27.0375187,7.68099 27.8834287,6.63566 28.2817487,5.39 C27.2509787,6.00139 26.1094487,6.44521 24.8943387,6.68441 C23.9214187,5.64766 22.5350987,5 21.0008387,5 C18.0550387,5 15.6665747,7.38823 15.6665747,10.33403 C15.6665747,10.75211 15.7137387,11.15927 15.8046997,11.54966 C11.3714917,11.32723 7.4409157,9.20355 4.8100927,5.9763 C4.3508807,6.7641 4.0878348,7.68047 4.0878348,8.65807 C4.0878348,10.50875 5.0295197,12.14142 6.4608977,13.09796 C5.5864917,13.07027 4.7639427,12.83029 4.044823,12.4308 C4.044316,12.45303 4.044316,12.47526 4.044316,12.49788 C4.044316,15.082319 5.883049,17.238135 8.323201,17.728326 C7.875663,17.850201 7.404413,17.915461 6.917927,17.915461 C6.574194,17.915461 6.240042,17.881947 5.914288,17.819729 C6.593083,19.938833 8.563038,21.481166 10.89724,21.524027 C9.071663,22.954833 6.771677,23.807607 4.2724764,23.807607 C3.8419021,23.807607 3.4172701,23.78227 3,23.733013 C5.360618,25.2464418 8.16451,26.12968 11.176844,26.12968 C20.98836,26.12968 26.35385,18.001586 26.35385,10.95257 C26.35385,10.7213 26.34852,10.49133 26.33825,10.26253 C27.3805887,9.51035 28.2848687,8.57097 28.9999987,7.5012" id="Shape"></path>
        </g>
    </g>
</svg>