<?xml version="1.0" encoding="UTF-8"?>
<svg width="30px" height="30px" viewBox="0 0 30 30" version="1.1" xmlns="http://www.w3.org/2000/svg" xmlns:xlink="http://www.w3.org/1999/xlink">
  <path d="M18.26,14.2 C18.26,13.6533306 18.2466668,13.2233349 18.22,12.91 C18.1933332,12.5966651 18.1233339,12.3566675 18.01,12.19 C17.8966661,12.0233325 17.7300011,11.9100003 17.51,11.85 C17.2899989,11.7899997 16.9866686,11.7400002 16.6,11.7 L16.6,11 L20.22,11 L20.22,17.14 C20.22,17.9000038 20.2299999,18.5199976 20.25,19 C20.2700001,19.4800024 20.2999998,19.8399988 20.34,20.08 C20.3666668,20.2533342 20.4099997,20.3899995 20.47,20.49 C20.5300003,20.5900005 20.6199994,20.6699997 20.74,20.73 C20.8600006,20.7900003 21.0166657,20.8299999 21.21,20.85 C21.4033343,20.8700001 21.6533318,20.88 21.96,20.88 L21.96,21.58 L18.66,21.82 L18.44,19.42 L18.36,19.42 C17.8533308,20.2466708 17.2700033,20.8499981 16.61,21.23 C15.9499967,21.6100019 15.2600036,21.8 14.54,21.8 C13.9799972,21.8 13.4366693,21.6933344 12.91,21.48 C12.3833307,21.2666656 11.986668,20.9800018 11.72,20.62 C11.4933322,20.3266652 11.3300005,19.9200026 11.23,19.4 C11.1299995,18.8799974 11.08,18.2066708 11.08,17.38 L11.08,14.2 C11.08,13.6533306 11.0666668,13.2233349 11.04,12.91 C11.0133332,12.5966651 10.9433339,12.3566675 10.83,12.19 C10.7166661,12.0233325 10.5500011,11.9100003 10.33,11.85 C10.1099989,11.7899997 9.8066686,11.7400002 9.42,11.7 L9.42,11 L13.04,11 L13.04,16.46 C13.04,17.9133406 13.2099983,18.9666634 13.55,19.62 C13.8900017,20.2733366 14.4333296,20.6 15.18,20.6 C16.3533392,20.6 17.2666634,19.833341 17.92,18.3 C17.986667,18.1399992 18.0399998,17.993334 18.08,17.86 C18.1200002,17.726666 18.1533332,17.5800008 18.18,17.42 C18.2066668,17.2599992 18.2266666,17.080001 18.24,16.88 C18.2533334,16.679999 18.26,16.4400014 18.26,16.16 L18.26,14.2 Z M9,23.6 L22,23.6 L22,24.6 L9,24.6 L9,23.6 Z"></path>
</svg>
