<?xml version="1.0" encoding="UTF-8"?>
<svg width="30px" height="30px" viewBox="0 0 30 30" version="1.1" xmlns="http://www.w3.org/2000/svg" xmlns:xlink="http://www.w3.org/1999/xlink">
  <path d="M14.1923882,14.8994949 C14.9734367,15.6805435 16.2397667,15.6805435 17.0208153,14.8994949 L19.8492424,12.0710678 C20.630291,11.2900192 20.630291,10.0236893 19.8492424,9.24264069 C19.0681938,8.4615921 17.8018639,8.4615921 17.0208153,9.24264069 L15.3124144,10.9510416 C14.5033796,10.6340073 13.6283981,10.5358299 12.7785193,10.6565096 L15.6066017,7.82842712 C17.1686989,6.26632996 19.7013588,6.26632996 21.263456,7.82842712 C22.8255531,9.39052429 22.8255531,11.9231842 21.263456,13.4852814 L18.4350288,16.3137085 C16.8729318,17.8758055 14.3402723,17.8758057 12.7781751,16.313709 C12.3876503,15.9231842 12.3876503,15.2900192 12.7781746,14.8994949 C13.1686989,14.5089706 13.8018639,14.5089706 14.1923882,14.8994949 L14.1923882,14.8994949 Z M14.8994949,14.1923882 C14.1184464,13.4113396 12.8521164,13.4113396 12.0710678,14.1923882 L9.24264069,17.0208153 C8.4615921,17.8018639 8.4615921,19.0681938 9.24264069,19.8492424 C10.0236893,20.630291 11.2900192,20.630291 12.0710678,19.8492424 L13.7794687,18.1408415 C14.5885035,18.4578758 15.463485,18.5560532 16.3133638,18.4353735 L13.4852814,21.263456 C11.9231842,22.8255531 9.39052429,22.8255531 7.82842712,21.263456 C6.26632996,19.7013588 6.26632996,17.1686989 7.82842712,15.6066017 L10.6568542,12.7781746 C12.2189512,11.2160776 14.7516108,11.2160774 16.313708,12.7781741 C16.7042328,13.1686989 16.7042328,13.8018639 16.3137085,14.1923882 C15.9231842,14.5829124 15.2900192,14.5829124 14.8994949,14.1923882 L14.8994949,14.1923882 Z M6,10 L8,10 C8.55228475,10 9,10.4477153 9,11 C9,11.5522847 8.55228475,12 8,12 L6,12 C5.44771525,12 5,11.5522847 5,11 C5,10.4477153 5.44771525,10 6,10 L6,10 Z M11,5 C11.5522847,5 12,5.44771525 12,6 L12,8 C12,8.55228475 11.5522847,9 11,9 C10.4477153,9 10,8.55228475 10,8 L10,6 L10,6 C10,5.44771525 10.4477153,5 11,5 Z M7,8 C6.44771525,8 6,7.55228475 6,7 C6,6.44771525 6.44771525,6 7,6 C7.55228475,6 8,6.44771525 8,7 C8,7.55228475 7.55228475,8 7,8 Z"></path>
</svg>
