<?xml version="1.0" encoding="UTF-8"?>
<svg width="30px" height="30px" viewBox="0 0 30 30" version="1.1" xmlns="http://www.w3.org/2000/svg" xmlns:xlink="http://www.w3.org/1999/xlink">
    <!-- Generator: Sketch 42 (36781) - http://www.bohemiancoding.com/sketch -->
    <title>unlock-solid</title>
    <desc>Created with Sketch.</desc>
    <defs></defs>
    <g id="Icons" stroke="none" stroke-width="1" fill="none" fill-rule="evenodd">
        <g id="unlock-solid" fill="#010101">
            <path d="M9,8 C9,4.6862915 11.6862915,2 15,2 C18.3137085,2 21,4.6862915 21,8 L21,12 C23.2094838,12 25,13.7888304 25,15.9962027 L25,24.0037973 C25,26.2108391 23.2075324,28 21.00077,28 L8.99922997,28 C6.79051625,28 5,26.2111696 5,24.0037973 L5,15.9962027 C5,13.7891609 6.79246765,12 8.99922997,12 L19,12 L19,8 C19,5.790861 17.209139,4 15,4 C12.790861,4 11,5.790861 11,8 L11,9 C11,9.55228475 10.5561352,10 10,10 C9.44771525,10 9,9.55613518 9,9 L9,8 L9,8 Z M16.157756,20.6310241 L16.5146466,22.0585863 C16.7826999,23.1307995 16.1122704,24 15,24 C13.8954305,24 13.2169851,23.1320596 13.4853534,22.0585863 L13.842244,20.6310241 C13.3325155,20.2685476 13,19.6731054 13,19 C13,17.8954305 13.8954305,17 15,17 C16.1045695,17 17,17.8954305 17,19 C17,19.6731054 16.6674845,20.2685476 16.157756,20.6310241 L16.157756,20.6310241 Z" id="Combined-Shape"></path>
        </g>
    </g>
</svg>