<?xml version="1.0" encoding="UTF-8"?>
<svg width="30px" height="30px" viewBox="0 0 30 30" version="1.1" xmlns="http://www.w3.org/2000/svg" xmlns:xlink="http://www.w3.org/1999/xlink">
    <!-- Generator: Sketch 42 (36781) - http://www.bohemiancoding.com/sketch -->
    <title>wand</title>
    <desc>Created with Sketch.</desc>
    <defs></defs>
    <g id="Icons" stroke="none" stroke-width="1" fill="none" fill-rule="evenodd">
        <g id="wand" fill="#010101">
            <g id="Group" transform="translate(16.091883, 14.677670) rotate(45.000000) translate(-16.091883, -14.677670) translate(8.591883, -4.822330)">
                <path d="M-5,24.4121267 C-5,23.3087097 -4.10502115,22.4142136 -3.00299534,22.4142136 L19.0029953,22.4142136 C20.1059106,22.4142136 21,23.3124742 21,24.4121267 L21,26.4163004 C21,27.5197174 20.1050211,28.4142136 19.0029953,28.4142136 L-3.00299534,28.4142136 C-4.10591056,28.4142136 -5,27.5159529 -5,26.4163004 L-5,24.4121267 Z M-3,24.4142136 L-3,26.4142136 L1,26.4142136 L1,24.4142136 L-3,24.4142136 Z" id="Combined-Shape" transform="translate(8.000000, 25.414214) scale(-1, 1) rotate(90.000000) translate(-8.000000, -25.414214) "></path>
                <path d="M6.50886903,6.90350222 C6.88552632,6.49958673 7.51548957,6.4748636 7.92222109,6.85414688 C8.32613658,7.23080418 8.35085971,7.86076742 7.97157643,8.26749894 C7.59491914,8.67141444 6.96495589,8.69613756 6.55822437,8.31685428 C6.15430887,7.94019699 6.12958575,7.31023374 6.50886903,6.90350222 Z M11.2039293,6.44647535 C11.7553017,6.42722101 12.217768,6.8552067 12.2371769,7.4110031 C12.2564513,7.96295141 11.8296857,8.42584255 11.2737283,8.44525701 L10.2722519,8.48022934 C9.72087951,8.49948368 9.25841322,8.07149798 9.23900438,7.51570159 C9.21972992,6.96375328 9.64649556,6.50086214 10.2024529,6.48144768 L11.2039293,6.44647535 Z M4.20819355,6.69077183 C4.75956594,6.67151748 5.22203224,7.09950318 5.24144107,7.65529958 C5.26071553,8.20724789 4.83394989,8.67013903 4.27799255,8.68955348 L3.27651611,8.72452581 C2.72514372,8.74378016 2.26267743,8.31579446 2.24326859,7.75999807 C2.22399413,7.20804975 2.65075977,6.74515862 3.20671712,6.72574416 L4.20819355,6.69077183 Z M8.25709972,11.5513393 C8.27635407,12.1027117 7.84836837,12.565178 7.29257197,12.5845868 C6.74062366,12.6038613 6.27773252,12.1770956 6.25831806,11.6211383 L6.22334574,10.6196619 C6.20409139,10.0682895 6.63207709,9.60582318 7.18787348,9.58641434 C7.73982179,9.56713988 8.20271293,9.99390552 8.22212739,10.5498629 L8.25709972,11.5513393 Z M8.25709972,4.5513393 C8.27635407,5.10271169 7.84836837,5.56517799 7.29257197,5.58458682 C6.74062366,5.60386128 6.27773252,5.17709565 6.25831806,4.6211383 L6.22334574,3.61966186 C6.20409139,3.06828947 6.63207709,2.60582318 7.18787348,2.58641434 C7.73982179,2.56713988 8.20271293,2.99390552 8.22212739,3.54986287 L8.25709972,4.5513393 Z" id="Combined-Shape" transform="translate(7.240223, 7.585501) rotate(45.000000) translate(-7.240223, -7.585501) "></path>
            </g>
        </g>
    </g>
</svg>