<?xml version="1.0" encoding="UTF-8"?>
<svg width="30px" height="30px" viewBox="0 0 30 30" version="1.1" xmlns="http://www.w3.org/2000/svg" xmlns:xlink="http://www.w3.org/1999/xlink">
  <path d="M7.5,21.6054932 C6.65953594,21.51683 5.70869334,20.7402461 5.42056973,19.7502498 C5.13244612,18.7602535 5,16.286642 5,14.9166667 C5,13.5466914 5.33341905,10.5 5.40175306,10.2316332 C5.67855448,9.1445566 6.64333424,8.33333333 7.8125,8.33333333 C10.8941696,8.11111111 13.2222946,8 14.8177083,8 C16.4131221,8 18.8627749,8.11111111 22.1666667,8.33333333 C23.3378474,8.3430473 24.3154386,9.16479867 24.5639175,10.2631198 C24.8123964,11.3614409 24.8888889,17.868223 24.6666667,19.3442383 C24.516457,20.6162189 23.5,21.5 22.159474,21.6249633 C19.70416,21.8888889 17.2569487,22 14.8177083,22 C12.378468,22 8.5,21.7109865 7.5,21.6054932 Z M12.8333333,11.8333333 L12.8333333,18.1666667 L18.3333333,15 L12.8333333,11.8333333 Z"></path>
</svg>
