<?xml version="1.0" encoding="UTF-8" standalone="no"?><svg xmlns="http://www.w3.org/2000/svg" xmlns:xlink="http://www.w3.org/1999/xlink"><symbol viewBox="0 0 30 30" id="add"><title>add</title><path d="M15 30c8.284 0 15-6.716 15-15 0-8.284-6.716-15-15-15C6.716 0 0 6.716 0 15c0 8.284 6.716 15 15 15zm0-2c7.18 0 13-5.82 13-13S22.18 2 15 2 2 7.82 2 15s5.82 13 13 13zm.788-14V8c0-.555-.447-1-1-1-.556 0-1 .448-1 1v6H7.79c-.556 0-1 .448-1 1 0 .556.447 1 1 1h6v6c0 .555.447 1 1 1 .555 0 1-.448 1-1v-6h5.998c.557 0 1.001-.448 1.001-1 0-.556-.448-1-1-1h-6z" fill-rule="evenodd"/></symbol><symbol viewBox="0 0 30 30" id="add-solid"><title>add-solid</title><path d="M15 30c8.284 0 15-6.716 15-15 0-8.284-6.716-15-15-15C6.716 0 0 6.716 0 15c0 8.284 6.716 15 15 15zm.788-16V8c0-.555-.447-1-1-1-.556 0-1 .448-1 1v6H7.79c-.556 0-1 .448-1 1 0 .556.447 1 1 1h6v6c0 .555.447 1 1 1 .555 0 1-.448 1-1v-6h5.998c.557 0 1.001-.448 1.001-1 0-.556-.448-1-1-1h-6z" fill-rule="evenodd"/></symbol><symbol viewBox="0 0 30 30" id="alert"><title>alert</title><path d="M15 30c8.284 0 15-6.716 15-15 0-8.284-6.716-15-15-15C6.716 0 0 6.716 0 15c0 8.284 6.716 15 15 15zm0-2c7.18 0 13-5.82 13-13S22.18 2 15 2 2 7.82 2 15s5.82 13 13 13zM13.5 9.497C13.5 8.67 14.166 8 15 8a1.5 1.5 0 0 1 1.5 1.497v7.006C16.5 17.33 15.834 18 15 18a1.5 1.5 0 0 1-1.5-1.497V9.497zM15 22a1.5 1.5 0 1 0 0-3 1.5 1.5 0 0 0 0 3z" fill-rule="evenodd"/></symbol><symbol viewBox="0 0 30 30" id="alert-solid"><title>alert-solid</title><path d="M15 30c8.284 0 15-6.716 15-15 0-8.284-6.716-15-15-15C6.716 0 0 6.716 0 15c0 8.284 6.716 15 15 15zM13.5 9.497C13.5 8.67 14.166 8 15 8a1.5 1.5 0 0 1 1.5 1.497v7.006C16.5 17.33 15.834 18 15 18a1.5 1.5 0 0 1-1.5-1.497V9.497zM15 22a1.5 1.5 0 1 0 0-3 1.5 1.5 0 0 0 0 3z" fill-rule="evenodd"/></symbol><symbol viewBox="0 0 30 30" id="calendar"><title>calendar</title><path d="M30 7.5V4c0-2.205-1.79-4-4-4H4C1.786 0 0 1.79 0 4v21.994C0 28.214 1.79 30 4 30h22a4 4 0 0 0 4-4.006V7.5zM28 8H2v18.009C2 27.11 2.894 28 3.997 28h22.006A1.995 1.995 0 0 0 28 26.009V8zm-10.424 9.19a1.073 1.073 0 0 0 .198 1.43l.054.044A4.015 4.015 0 0 1 19 21.5c0 2.21-1.79 3.5-4 3.5s-4-1.29-4-3.5c0-1.106.45-2.108 1.175-2.832l.054-.044c.426-.345.503-.984.195-1.434 0 0-.924-1.084-.924-2.19 0-2.21 1.29-3.5 3.5-3.5s3.5 1.29 3.5 3.5c0 1.106-.924 2.19-.924 2.19zM13.5 15c0-1.105.5-1.5 1.5-1.5s1.5.395 1.5 1.5c0 .556-.255 1.5-1.5 1.5s-1.5-.944-1.5-1.5zm-.5 6.5c0 1.105 1 1.5 2 1.5s2-.395 2-1.5c0-.556-.227-1.06-.593-1.422l-.22-.168c-.656-.503-1.714-.508-2.38 0l-.221.168A2.018 2.018 0 0 0 13 21.5z" fill-rule="evenodd"/></symbol><symbol viewBox="0 0 30 30" id="calendar-solid"><title>calendar-solid</title><path d="M30 7.5V4c0-2.205-1.79-4-4-4H4C1.786 0 0 1.79 0 4v21.994C0 28.214 1.79 30 4 30h22a4 4 0 0 0 4-4.006V7.5zm-12.424 9.69a1.073 1.073 0 0 0 .198 1.43l.054.044A4.015 4.015 0 0 1 19 21.5c0 2.21-1.79 3.5-4 3.5s-4-1.29-4-3.5c0-1.106.45-2.108 1.175-2.832l.054-.044c.426-.345.503-.984.195-1.434 0 0-.924-1.084-.924-2.19 0-2.21 1.29-3.5 3.5-3.5s3.5 1.29 3.5 3.5c0 1.106-.924 2.19-.924 2.19zM13.5 15c0-1.105.5-1.5 1.5-1.5s1.5.395 1.5 1.5c0 .556-.255 1.5-1.5 1.5s-1.5-.944-1.5-1.5zm-.5 6.5c0 1.105 1 1.5 2 1.5s2-.395 2-1.5c0-.556-.227-1.06-.593-1.422l-.22-.168c-.656-.503-1.714-.508-2.38 0l-.221.168A2.018 2.018 0 0 0 13 21.5zM2 3.998C2 2.894 2.895 2 3.997 2h22.006A2 2 0 0 1 28 3.998V8H2V3.998z" fill-rule="evenodd"/></symbol><symbol viewBox="0 0 30 30" id="cancel"><title>cancel</title><path d="M15 30c8.284 0 15-6.716 15-15 0-8.284-6.716-15-15-15C6.716 0 0 6.716 0 15c0 8.284 6.716 15 15 15zm0-2c7.18 0 13-5.82 13-13S22.18 2 15 2 2 7.82 2 15s5.82 13 13 13zm1.203-13l4.242-4.242a.998.998 0 0 0 0-1.415.998.998 0 0 0-1.415 0l-4.242 4.243-4.242-4.242a.998.998 0 0 0-1.415 0 .998.998 0 0 0 .001 1.414L13.374 15l-4.242 4.242a.998.998 0 0 0 0 1.415.998.998 0 0 0 1.414 0l4.242-4.243 4.242 4.242a.998.998 0 0 0 1.415 0 .998.998 0 0 0 0-1.414L16.203 15z" fill-rule="evenodd"/></symbol><symbol viewBox="0 0 30 30" id="cancel-solid"><title>cancel-solid</title><path d="M15 30c8.284 0 15-6.716 15-15 0-8.284-6.716-15-15-15C6.716 0 0 6.716 0 15c0 8.284 6.716 15 15 15zm5.445-19.242a.998.998 0 0 0 0-1.415.998.998 0 0 0-1.415 0l-4.242 4.243-4.242-4.242a.998.998 0 0 0-1.415 0 .998.998 0 0 0 .001 1.414L13.374 15l-4.242 4.242a.998.998 0 0 0 0 1.415.998.998 0 0 0 1.414 0l4.242-4.243 4.242 4.242a.998.998 0 0 0 1.415 0 .998.998 0 0 0 0-1.414L16.203 15l4.242-4.242z" fill-rule="evenodd"/></symbol><symbol viewBox="0 0 30 30" id="cart"><title>cart</title><path d="M9.637 9c-.553 0-1.04-.438-1.092-1.003l-.364-4.01C8.08 2.89 7.1 2 6.002 2H2.991A.993.993 0 0 0 2 3c0 .552.448 1 .991 1h2.2c.547 0 1.032.455 1.081.992l1.547 17.017C7.919 23.11 8.89 24 10 24h14c.552 0 1-.444 1-1 0-.552-.438-1-.996-1h-13.19c-.55 0-1.036-.444-1.087-1a.897.897 0 0 1 .917-1h12.347c1.11 0 2.244-.863 2.535-1.929l1.948-7.142C27.764 9.863 27.104 9 26.001 9H9.637zm.172 2c-.547 0-.951.438-.9 1.003l.454 4.994c.05.554.544 1.003 1.082 1.003h12.11c.547 0 1.11-.438 1.256-.973l1.378-5.054c.147-.537-.18-.973-.725-.973H9.809zM9.5 28a1.5 1.5 0 1 0 0-3 1.5 1.5 0 0 0 0 3zm14 0a1.5 1.5 0 1 0 0-3 1.5 1.5 0 0 0 0 3z" fill-rule="evenodd"/></symbol><symbol viewBox="0 0 30 30" id="cart-solid"><title>cart-solid</title><path d="M9.637 9c-.553 0-1.04-.438-1.092-1.003l-.364-4.01C8.08 2.89 7.1 2 6.002 2H2.991A.993.993 0 0 0 2 3c0 .552.448 1 .991 1h2.2c.547 0 1.032.455 1.081.992l1.547 17.017C7.919 23.11 8.89 24 10 24h14c.552 0 1-.444 1-1 0-.552-.438-1-.996-1h-13.19c-.55 0-1.036-.444-1.087-1a.897.897 0 0 1 .917-1h12.347c1.11 0 2.244-.863 2.535-1.929l1.948-7.142C27.764 9.863 27.104 9 26.001 9H9.637zM9.5 28a1.5 1.5 0 1 0 0-3 1.5 1.5 0 0 0 0 3zm14 0a1.5 1.5 0 1 0 0-3 1.5 1.5 0 0 0 0 3z" fill-rule="evenodd"/></symbol><symbol viewBox="0 0 30 30" id="check"><title>check</title><path d="M15 30c8.284 0 15-6.716 15-15 0-8.284-6.716-15-15-15C6.716 0 0 6.716 0 15c0 8.284 6.716 15 15 15zm0-2c7.18 0 13-5.82 13-13S22.18 2 15 2 2 7.82 2 15s5.82 13 13 13zm7.349-18.05a.998.998 0 0 1 1.414 0 .998.998 0 0 1 0 1.415l-9.898 9.898a.998.998 0 0 1-1.415 0L8.205 17.02a.996.996 0 0 1 .002-1.412 1.003 1.003 0 0 1 1.412-.002l3.538 3.537 9.192-9.192z" fill-rule="evenodd"/></symbol><symbol viewBox="0 0 30 30" id="check-solid"><title>check-solid</title><path d="M15 30c8.284 0 15-6.716 15-15 0-8.284-6.716-15-15-15C6.716 0 0 6.716 0 15c0 8.284 6.716 15 15 15zm7.349-20.05a.998.998 0 0 1 1.414 0 .998.998 0 0 1 0 1.415l-9.898 9.898a.998.998 0 0 1-1.415 0L8.205 17.02a.996.996 0 0 1 .002-1.412 1.003 1.003 0 0 1 1.412-.002l3.538 3.537 9.192-9.192z" fill-rule="evenodd"/></symbol><symbol viewBox="0 0 30 30" id="direction"><title>direction</title><path d="M12.059 2.173a4.013 4.013 0 0 1 5.67 0l9.886 9.886a4.013 4.013 0 0 1 0 5.67l-9.886 9.886a4.013 4.013 0 0 1-5.67 0L2.173 17.73a4.013 4.013 0 0 1 0-5.67l9.886-9.886zm1.424 24.038c.78.78 2.043.78 2.822 0l9.906-9.906c.78-.78.78-2.042 0-2.822l-9.906-9.906a1.995 1.995 0 0 0-2.822 0l-9.906 9.906c-.78.78-.78 2.043 0 2.822l4.714 4.714c.392.392.709.252.709-.29V18a4 4 0 0 1 4-4h5.587l-3.29-3.29a.994.994 0 0 1-.002-1.416.996.996 0 0 1 1.413-.001l4.246 4.246c.779.779.78 2.045 0 2.825l-4.246 4.246a.999.999 0 1 1-1.41-1.418L18.488 16H13a2 2 0 0 0-2 2v5.22c0 .28.163.67.356.864l2.127 2.127z" fill-rule="evenodd"/></symbol><symbol viewBox="0 0 30 30" id="direction-solid"><title>direction-solid</title><path d="M12.059 27.615a4.013 4.013 0 0 0 5.67 0l9.886-9.886a4.013 4.013 0 0 0 0-5.67L17.73 2.173a4.013 4.013 0 0 0-5.67 0l-9.886 9.886a4.013 4.013 0 0 0 0 5.67l6.122 6.122c.39.39.705.255.705-.29V18a4 4 0 0 1 4-4h5.587l-3.29-3.29a.994.994 0 0 1-.002-1.416.996.996 0 0 1 1.413-.001l4.246 4.246c.779.779.78 2.045 0 2.825l-4.246 4.246a.999.999 0 1 1-1.41-1.418L18.488 16H13a2 2 0 0 0-2 2v8.047c0 .281.156.666.359.868l.7.7z" fill-rule="evenodd"/></symbol><symbol viewBox="0 0 30 30" id="down-arrow"><title>down-arrow</title><path d="M14.453 18.107l-3.954-3.954a.997.997 0 0 0-1.41.004.993.993 0 0 0-.005 1.409l4.962 4.962a1.995 1.995 0 0 0 2.815 0l4.962-4.962c.38-.38.385-1.018-.005-1.409a.994.994 0 0 0-1.41-.004l-3.955 3.955V9.214a1 1 0 1 0-2 0v8.893z" fill-rule="evenodd"/></symbol><symbol viewBox="0 0 30 30" id="down-chevron"><title>down-chevron</title><path d="M5.296 10.295a.993.993 0 0 0-.006 1.409l8.497 8.497a1.995 1.995 0 0 0 2.816 0l8.497-8.497c.38-.38.385-1.018-.005-1.409a.994.994 0 0 0-1.41-.004l-7.782 7.727a1.02 1.02 0 0 1-1.42 0l-7.778-7.727a.997.997 0 0 0-1.41.004z" fill-rule="evenodd"/></symbol><symbol viewBox="0 0 30 30" id="download"><title>download</title><path d="M15 0c8.284 0 15 6.716 15 15 0 8.284-6.716 15-15 15-8.284 0-15-6.716-15-15C0 6.716 6.716 0 15 0zm13 15c0 7.18-5.82 13-13 13S2 22.18 2 15 7.82 2 15 2s13 5.82 13 13zm-17.178-.656a.998.998 0 0 0-1.415 0 .998.998 0 0 0 0 1.414l4.952 4.951c.39.39 1.025.385 1.41 0l4.951-4.951a.998.998 0 0 0 0-1.415.998.998 0 0 0-1.414 0L16 17.65V9.002a.999.999 0 1 0-2 0v8.52l-3.178-3.178z" fill-rule="evenodd"/></symbol><symbol viewBox="0 0 30 30" id="download-solid"><title>download-solid</title><path d="M30 15c0 8.284-6.716 15-15 15-8.284 0-15-6.716-15-15C0 6.716 6.716 0 15 0c8.284 0 15 6.716 15 15zm-19.178-.656a.998.998 0 0 0-1.415 0 .998.998 0 0 0 0 1.414l4.952 4.951c.39.39 1.025.385 1.41 0l4.951-4.951a.998.998 0 0 0 0-1.415.998.998 0 0 0-1.414 0L16 17.65V9.002a.999.999 0 1 0-2 0v8.52l-3.178-3.178z" fill-rule="evenodd"/></symbol><symbol viewBox="0 0 30 30" id="edit"><title>edit</title><path d="M5.291 25.302l4.275-1.382 16.97-16.97a.993.993 0 0 0 .007-1.408l-2.841-2.841a1 1 0 0 0-1.408.006l-16.97 16.97-1.382 4.276a1 1 0 0 0 .18 1.17c.316.316.624.355 1.169.18zm2.86-2.796l14.85-14.85-1.414-1.413-14.85 14.849-.247.742.92.92.742-.248z" fill-rule="evenodd"/></symbol><symbol viewBox="0 0 30 30" id="email"><title>email</title><path d="M15 5h11a4 4 0 0 1 4 4v12c0 2.21-1.787 4-4 4H4a4 4 0 0 1-4-4V8.995 8.99A4 4 0 0 1 4 5h11zm12.415 17.416c.361-.36.585-.86.585-1.41V8.994C28 7.894 27.106 7 26.003 7H3.997A1.997 1.997 0 0 0 2 8.994v12.012C2 22.107 2.895 23 3.997 23h22.006c.551 0 1.05-.224 1.412-.585v.001zm-12.444-8.56c.418-.001.9-.178 1.05-.234C18.719 12.625 25.832 10 26 10a1 1 0 0 1 .395 1.919c-.04.017-8 2.88-10.371 3.734-.12.041-.615.188-1.053.189-.462 0-.868-.146-.995-.189-2.372-.853-10.33-3.717-10.371-3.734A1 1 0 0 1 4 10c.168 0 7.282 2.625 9.978 3.622.162.06.546.237.993.235z" fill-rule="evenodd"/></symbol><symbol viewBox="0 0 30 30" id="email-solid"><title>email-solid</title><path d="M15 5h11a4 4 0 0 1 4 4v12c0 2.21-1.787 4-4 4H4a4 4 0 0 1-4-4V8.995 8.99A4 4 0 0 1 4 5h11zm-.029 8.857c.418-.002.9-.18 1.05-.235C18.719 12.625 25.832 10 26 10a1 1 0 0 1 .395 1.919c-.04.017-8 2.88-10.371 3.734-.12.041-.615.188-1.053.189-.462 0-.868-.146-.995-.189-2.372-.853-10.33-3.717-10.371-3.734A1 1 0 0 1 4 10c.168 0 7.282 2.625 9.978 3.622.162.06.546.237.993.235z" fill-rule="evenodd"/></symbol><symbol viewBox="0 0 30 30" id="export"><title>export</title><path d="M23 8.415v5.592c0 .548.448.993 1 .993.556 0 1-.444 1-.992V6.991C25 5.898 24.109 5 23.01 5h-7.018C15.455 5 15 5.448 15 6c0 .556.445 1 .993 1h5.594l-6.289 6.289a1 1 0 1 0 1.414 1.414L23 8.415zM22 23c.552 0 1-.444 1-1v-3c0-.552.444-1 1-1 .552 0 1 .438 1 1.003v2.988A3.004 3.004 0 0 1 22.006 25H7.994A2.996 2.996 0 0 1 5 22.006V7.994A3.003 3.003 0 0 1 8.01 5h2.987A.999.999 0 1 1 11 7H8c-.552 0-1 .445-1 1v14c0 .552.445 1 1 1h14z" fill-rule="evenodd"/></symbol><symbol viewBox="0 0 30 30" id="eye"><title>eye</title><path d="M15 26c9 0 13.946-9.317 13.946-9.317.582-.93.572-2.44-.06-3.354C28.886 13.33 23.5 4 15 4S1.097 13.353 1.097 13.353c-.606.91-.637 2.42-.035 3.342C1.062 16.695 6 26 15 26zM9.798 7.43c-1.206.66-2.853 1.923-4.1 3.256-1.092 1.167-2.082 2.338-2.618 3.183-.363.574-.461 1.018-.461 1.131 0 1.089 1.855 3.577 4.027 5.518.851.76 1.69 1.326 2.611 1.905C11.713 23.965 14.132 24 15 24c1.065 0 3.479-.208 5.712-1.577.873-.535 2.548-1.656 3.696-2.98 1.79-2.066 2.965-3.52 2.965-4.443 0-.328-.568-1.932-3.878-5.066-1.468-1.39-2.755-2.403-4.93-3.271C16.391 5.794 15 6 15 6s-2.224-.198-5.202 1.43zM15 22a7 7 0 1 0 0-14 7 7 0 0 0 0 14zm0-2a5 5 0 1 0 0-10 5 5 0 0 0 0 10zm-3.992-4.737a4 4 0 1 1 2.213 3.321 2 2 0 1 0-2.213-3.321z" fill-rule="evenodd"/></symbol><symbol viewBox="0 0 30 30" id="eye-closed"><title>eye-closed</title><path d="M29.372 15c-.02-.61-.405-1.066-1.103-1.067-.656 0-.86.822-.887 1.03-.009.96-1.184 2.414-2.974 4.48-1.148 1.324-2.823 2.445-3.696 2.98C18.48 23.79 16.067 24 15.002 24c-1.071 0-3.484-.21-5.716-1.577-.873-.535-2.548-1.656-3.696-2.98C3.8 17.377 2.625 15.923 2.625 15c-.035-.245-.24-1.067-.896-1.067-.698 0-1.082.456-1.102 1.047a1.854 1.854 0 0 0 0 .073c-.003.524.107 1.047.335 1.473.028.054.058.106.09.157 0 0 .778 1.465 2.278 3.234l-1.307 1.097a1.013 1.013 0 0 0-.132 1.423c.357.426.989.476 1.416.117l1.39-1.166c.478.469 1.002.937 1.571 1.386L5.022 24.26a1.02 1.02 0 0 0-.217.441.995.995 0 0 0 .332.984 1.002 1.002 0 0 0 1.415-.13l1.365-1.627c.543.333 1.118.64 1.722.911l-.373 2.116a1 1 0 1 0 1.972.338l.31-1.763a12.937 12.937 0 0 0 2.45.432v1.792a1 1 0 0 0 .977 1.005c.58 0 1.023-.45 1.023-1.005v-1.792a12.783 12.783 0 0 0 2.451-.432l.311 1.763.01.049a1 1 0 1 0 1.962-.387l-.373-2.116c.605-.27 1.179-.578 1.722-.91l1.365 1.625c.358.427.989.488 1.415.13a.995.995 0 0 0 .333-.983 1.02 1.02 0 0 0-.218-.44l-1.246-1.486a19.521 19.521 0 0 0 1.571-1.386l1.39 1.166a1.002 1.002 0 0 0 1.416-.117 1.013 1.013 0 0 0-.132-1.423l-1.307-1.097c1.5-1.769 2.278-3.234 2.278-3.234.032-.051.062-.103.09-.157.228-.426.338-.95.336-1.473V15z" fill-rule="evenodd"/></symbol><symbol viewBox="0 0 30 30" id="eye-solid"><title>eye-solid</title><path d="M28.946 16.683c.582-.93.572-2.44-.06-3.354C28.886 13.33 23.5 4 15 4S1.097 13.353 1.097 13.353c-.606.91-.637 2.42-.035 3.342C1.062 16.695 6 26 15 26s13.946-9.317 13.946-9.317zM22 15a7 7 0 1 0-14 0 7 7 0 0 0 14 0zm-10.992.263a4 4 0 1 1 2.213 3.321 2 2 0 1 0-2.213-3.321z" fill-rule="evenodd"/></symbol><symbol viewBox="0 0 30 30" id="facebook"><title>facebook</title><path d="M26 30c2.213 0 4-1.79 4-4V4c0-2.213-1.79-4-4-4H4C1.786 0 0 1.79 0 4v22c0 2.213 1.79 4 4 4h11.028v-9.919H11.9V16.46h3.128v-2.671c0-3.1 1.893-4.788 4.658-4.788 1.325 0 2.463.099 2.795.143v3.24h-1.918c-1.504 0-1.795.715-1.795 1.764v2.312h3.587l-.467 3.622h-3.12V30h7.233z" fill-rule="evenodd"/></symbol><symbol viewBox="0 0 30 30" id="fan"><title>fan</title><path d="M15.705 26.295a.998.998 0 0 1-1.41 0l-6.25-6.25A7.997 7.997 0 0 1 15 16a7.997 7.997 0 0 1 6.955 4.045l-6.25 6.25zM0 14.996C0 6.716 6.716 0 15 0c8.284 0 15 6.716 15 15L16.411 28.589c-.78.78-2.046.776-2.822 0L0 14.995zm2-.947C2.5 7.5 8.232 2 15 2c6.936 0 12.5 5.5 12.965 12.035L23.41 18.59a10.05 10.05 0 0 0-1.631-1.94l3.877-4.015a.997.997 0 0 0-.025-1.414 1.002 1.002 0 0 0-1.42.03l-4.043 4.188a9.978 9.978 0 0 0-.813-.442l2.92-7.224a1.002 1.002 0 0 0-.55-1.31 1.003 1.003 0 0 0-1.302.552l-2.947 7.295A9.967 9.967 0 0 0 16 14.05V5c0-.552-.444-1-1-1-.552 0-1 .445-1 1v9.05c-.598.059-1.18.17-1.742.33l-2.98-7.374a.993.993 0 0 0-1.298-.544 1.003 1.003 0 0 0-.556 1.292l2.975 7.365a9.989 9.989 0 0 0-.752.433L5.49 11.246a.998.998 0 0 0-1.415-.026.998.998 0 0 0-.024 1.415l4.017 4.159a10.049 10.049 0 0 0-1.478 1.795L2 14.049z" fill-rule="evenodd"/></symbol><symbol viewBox="0 0 30 30" id="fan-solid"><title>fan-solid</title><path d="M0 14.996C0 6.716 6.716 0 15 0c8.284 0 15 6.716 15 15L16.411 28.589c-.78.78-2.046.776-2.822 0L0 14.995zm15.722 10.81a1.047 1.047 0 0 1-1.443 0s-6.135-5.912-6.135-5.932A7.996 7.996 0 0 1 15 16a7.996 7.996 0 0 1 6.867 3.894l-6.145 5.912zm6.058-9.157l3.877-4.015a.997.997 0 0 0-.025-1.414 1.002 1.002 0 0 0-1.42.03l-4.043 4.188a9.995 9.995 0 0 0 1.61 1.21zM9.647 15.552L5.49 11.246a.998.998 0 0 0-1.415-.026.998.998 0 0 0-.024 1.415l4.017 4.159a10.043 10.043 0 0 1 1.58-1.242zm2.611-1.171l-2.98-7.375a.993.993 0 0 0-1.298-.544 1.003 1.003 0 0 0-.556 1.292l2.975 7.365a9.934 9.934 0 0 1 1.859-.738zM15 14c.337 0 .671.017 1 .05V5c0-.552-.444-1-1-1-.552 0-1 .445-1 1v9.05c.329-.033.663-.05 1-.05zm4.36.998l2.915-7.225a1.003 1.003 0 0 0-.549-1.311 1.003 1.003 0 0 0-1.302.552l-2.947 7.295c.656.167 1.286.4 1.883.69z" fill-rule="evenodd"/></symbol><symbol viewBox="0 0 30 30" id="flat-solid"><title>flat-solid</title><path d="M3.5 17.567c0-.456-.5-2.505-.5-4 0-.623.276-1.288.418-2.104C3.467 11.181 3.5 11 4 11c1.025 0 2.684.295 3.975.295 2.081 0 3.716-.295 4.025-.295.5 0 .648.116.925.295.738.48 3.761 2.59 8.075 3.272 4.188.662 6.585 3.16 6.585 4.078 0 .919-.779.922-1.843.912-2.818-.027-8.294-.078-10.242-.49-2-.422-2.992-.714-3.968-1.044-.772-.26-1.249-.3-1.249.16v1.384H3.5v-2z" fill-rule="evenodd"/></symbol><symbol viewBox="0 0 30 30" id="google"><title>google</title><path d="M0 4c0-2.21 1.787-4 4-4h22c2.21 0 4 1.787 4 4v22c0 2.21-1.787 4-4 4H4c-2.21 0-4-1.787-4-4V4zm15.5 18.31c1.919 0 3.898-.652 5.224-1.862C22.261 19.046 23 16.925 23 14.655c0-.452-.035-.899-.103-1.337-.008-.047-7.242 0-7.242 0v2.992h4.138s0 .414-.64 1.329c-.641.914-.057.084-.084.12-1.035 1.344-2.663 1.584-3.569 1.551-1.544-.056-2.725-.921-3.466-1.965-.624-.88-.93-1.866-.93-2.793 0-2.424 1.862-4.552 4.24-4.552 2.38 0 3.311 1.138 3.311 1.138l2.101-2.192s-.617-.57-.963-.808C18.598 7.316 17.05 7 15.5 7 11.358 7 8 10.427 8 14.655s3.358 7.655 7.5 7.655z" fill-rule="evenodd"/></symbol><symbol viewBox="0 0 30 30" id="happy"><title>happy</title><path d="M2.038 14c-.025.33-.038.664-.038 1 0 7.18 5.82 13 13 13s13-5.82 13-13c0-.847-.081-1.675-.236-2.476C26.562 12.834 25.3 13 24 13c-5.107 0-9.619-2.553-12.328-6.452C10.55 10.825 6.663 13.983 2.038 14zM15 30c8.284 0 15-6.716 15-15 0-8.284-6.716-15-15-15C6.716 0 0 6.716 0 15c0 8.284 6.716 15 15 15zM9.5 18a1.5 1.5 0 1 0 0-3 1.5 1.5 0 0 0 0 3zm11 0a1.5 1.5 0 1 0 0-3 1.5 1.5 0 0 0 0 3zm-.29 3.162c.422.29.565.997 0 1.625A6.982 6.982 0 0 1 15 25.113a6.982 6.982 0 0 1-5.207-2.32c-.528-.589-.38-1.344 0-1.631.423-.32 1.13-.122 1.413.208A4.989 4.989 0 0 0 15 23.113c1.486 0 2.82-.648 3.736-1.677.388-.436 1.065-.557 1.475-.274z" fill-rule="evenodd"/></symbol><symbol viewBox="0 0 30 30" id="heel-solid"><title>heel-solid</title><path d="M9.297 15.86c.819.194 1.647.614 2.703 1.14 5.028 2.503 12.086 4.859 12.086 4.859S28 23.143 28 19.503c0-3.036-3.974-4.325-3.974-4.325s-2.883 1.947-4.657 1.134C15.072 14.342 5.546 6.284 5.546 6.284 4.69 5.577 4 5.897 4 7.004c0 0-.227 2.669.357 5.09C4.716 13.585 6 14.259 6 16.303v4.694A.998.998 0 0 0 7 22c.556 0 1-.446 1-.997v-4.267c0-1.072.837-.986 1.297-.877z" fill-rule="evenodd"/></symbol><symbol viewBox="0 0 30 30" id="help"><title>help</title><path d="M15 30c8.284 0 15-6.716 15-15 0-8.284-6.716-15-15-15C6.716 0 0 6.716 0 15c0 8.284 6.716 15 15 15zm0-2c7.18 0 13-5.82 13-13S22.18 2 15 2 2 7.82 2 15s5.82 13 13 13zm-1.5-11.5v2c0 .826.672 1.5 1.5 1.5.834 0 1.5-.672 1.5-1.5v-.689A6 6 0 1 0 9 12a1.5 1.5 0 0 0 3 0 3 3 0 1 1 3 3c-.834 0-1.5.672-1.5 1.5zM15 24a1.5 1.5 0 1 0 0-3 1.5 1.5 0 0 0 0 3z" fill-rule="evenodd"/></symbol><symbol viewBox="0 0 30 30" id="help-solid"><title>help-solid</title><path d="M15 30c8.284 0 15-6.716 15-15 0-8.284-6.716-15-15-15C6.716 0 0 6.716 0 15c0 8.284 6.716 15 15 15zm-1.5-13.5v2c0 .826.672 1.5 1.5 1.5.834 0 1.5-.672 1.5-1.5v-.689A6 6 0 1 0 9 12a1.5 1.5 0 0 0 3 0 3 3 0 1 1 3 3c-.834 0-1.5.672-1.5 1.5zM15 24a1.5 1.5 0 1 0 0-3 1.5 1.5 0 0 0 0 3z" fill-rule="evenodd"/></symbol><symbol viewBox="0 0 30 30" id="import"><title>import</title><path d="M17 11.587V5.995a.997.997 0 0 0-1-.993c-.556 0-1 .444-1 .992v7.017c0 1.093.891 1.99 1.99 1.99h7.018c.537 0 .992-.447.992-1 0-.555-.445-1-.993-1h-5.594l6.289-6.288A1 1 0 1 0 23.288 5.3L17 11.587zM22 23c.552 0 1-.444 1-1v-3c0-.552.444-1 1-1 .552 0 1 .438 1 1.003v2.988A3.004 3.004 0 0 1 22.006 25H7.994A2.996 2.996 0 0 1 5 22.006V7.994A3.003 3.003 0 0 1 8.01 5h2.987A.999.999 0 1 1 11 7H8c-.552 0-1 .445-1 1v14c0 .552.445 1 1 1h14z" fill-rule="evenodd"/></symbol><symbol viewBox="0 0 30 30" id="left-arrow"><title>left-arrow</title><path d="M12.003 15.656l3.953 3.954a.997.997 0 0 1-.004 1.41.993.993 0 0 1-1.409.005l-4.962-4.962a1.995 1.995 0 0 1 0-2.815l4.962-4.962a1.003 1.003 0 0 1 1.409.006.994.994 0 0 1 .004 1.41l-3.955 3.954h8.894a1 1 0 1 1 0 2h-8.892z" fill-rule="evenodd"/></symbol><symbol viewBox="0 0 30 30" id="left-chevron"><title>left-chevron</title><path d="M20.487 5.296a.993.993 0 0 0-1.408-.006l-8.498 8.497a1.995 1.995 0 0 0 0 2.816L19.08 25.1c.38.38 1.018.385 1.408-.005a.994.994 0 0 0 .005-1.41l-7.728-7.782a1.02 1.02 0 0 1 0-1.42l7.728-7.778a.997.997 0 0 0-.005-1.41z" fill-rule="evenodd"/></symbol><symbol viewBox="0 0 30 30" id="location"><title>location</title><path d="M13.833 26.383c.644.893 1.696.893 2.334 0C16.167 26.383 24 15.97 24 11a9 9 0 0 0-18 0c0 4.97 7.833 15.383 7.833 15.383zm.606-2.215c.31.46.81.466 1.122 0 0 0 6.439-9.302 6.439-13.168a7 7 0 0 0-14 0c0 3.866 6.439 13.168 6.439 13.168zM15 14a3 3 0 1 0 0-6 3 3 0 0 0 0 6z" fill-rule="evenodd"/></symbol><symbol viewBox="0 0 30 30" id="location-solid"><title>location-solid</title><path d="M13.833 26.383c.644.893 1.696.893 2.334 0C16.167 26.383 24 15.97 24 11a9 9 0 0 0-18 0c0 4.97 7.833 15.383 7.833 15.383zM15 14a3 3 0 1 0 0-6 3 3 0 0 0 0 6z" fill-rule="evenodd"/></symbol><symbol viewBox="0 0 30 30" id="lock"><title>lock</title><path d="M9 12c-2.208 0-4 1.79-4 3.996v8.008A3.998 3.998 0 0 0 9 28h12c2.208 0 4-1.79 4-3.996v-8.008A3.998 3.998 0 0 0 21 12V8A6 6 0 1 0 9 8v4zm2 0h8V8a4 4 0 1 0-8 0v4zm-4 4.009C7 14.899 7.895 14 8.994 14h12.012c1.101 0 1.994.902 1.994 2.009v7.982c0 1.11-.895 2.009-1.994 2.009H8.994A2.003 2.003 0 0 1 7 23.991V16.01zm9.158 4.622l.357 1.428C16.783 23.13 16.112 24 15 24c-1.105 0-1.783-.868-1.515-1.941l.357-1.428a2 2 0 1 1 2.316 0z" fill-rule="evenodd"/></symbol><symbol viewBox="0 0 30 30" id="lock-solid"><title>lock-solid</title><path d="M9 12c-2.208 0-4 1.79-4 3.996v8.008A3.998 3.998 0 0 0 9 28h12c2.208 0 4-1.79 4-3.996v-8.008A3.998 3.998 0 0 0 21 12V8A6 6 0 1 0 9 8v4zm2 0h8V8a4 4 0 1 0-8 0v4zm5.158 8.631l.357 1.428C16.783 23.13 16.112 24 15 24c-1.105 0-1.783-.868-1.515-1.941l.357-1.428a2 2 0 1 1 2.316 0z" fill-rule="evenodd"/></symbol><symbol viewBox="0 0 30 30" id="love"><title>love</title><path d="M27.347 15.95A8 8 0 1 0 15 6.124 8 8 0 1 0 2.653 15.95C7.099 20.397 13.56 26.611 13.56 26.611c.795.767 2.083.77 2.88 0 0 0 6.46-6.214 10.907-10.66zM13.652 7.981A6.002 6.002 0 0 0 2 10c0 1.531.574 2.928 1.518 3.989L14.205 24.85a.992.992 0 0 0 1.406-.002L26 14.5a6.08 6.08 0 0 0 2-4.5 6 6 0 0 0-11.671-1.964S16 9 15 9s-1.29-.854-1.348-1.019z" fill-rule="evenodd"/></symbol><symbol viewBox="0 0 30 30" id="love-solid"><title>love-solid</title><path d="M27.347 15.95A8 8 0 1 0 15 6.124 8 8 0 1 0 2.653 15.95C7.099 20.397 13.56 26.611 13.56 26.611c.795.767 2.083.77 2.88 0 0 0 6.46-6.214 10.907-10.66z" fill-rule="evenodd"/></symbol><symbol viewBox="0 0 30 30" id="person"><title>person</title><path d="M2.038 14c-.025.33-.038.664-.038 1 0 7.18 5.82 13 13 13s13-5.82 13-13c0-.847-.081-1.675-.236-2.476C26.562 12.834 25.3 13 24 13c-5.107 0-9.619-2.553-12.328-6.452C10.55 10.825 6.663 13.983 2.038 14zM15 30c8.284 0 15-6.716 15-15 0-8.284-6.716-15-15-15C6.716 0 0 6.716 0 15c0 8.284 6.716 15 15 15zM9.5 18a1.5 1.5 0 1 0 0-3 1.5 1.5 0 0 0 0 3zm11 0a1.5 1.5 0 1 0 0-3 1.5 1.5 0 0 0 0 3z" fill-rule="evenodd"/></symbol><symbol viewBox="0 0 30 30" id="photo"><title>photo</title><path d="M9 6H4c-2.213 0-4 1.79-4 4v12a4 4 0 0 0 4 4h22c2.213 0 4-1.79 4-4V10a4 4 0 0 0-4-4h-5c0-.556-.449-1-1.002-1h-9.996C9.456 5 9 5.448 9 6zm-7 4h26v11.994A2.002 2.002 0 0 1 26.003 24H3.997A2 2 0 0 1 2 21.994V10zm13 13a6 6 0 1 0 0-12 6 6 0 0 0 0 12zm0-2a4 4 0 1 0 0-8 4 4 0 0 0 0 8zm0-1.5a2.5 2.5 0 0 1-2.5-2.5.5.5 0 1 1 1 0 1.5 1.5 0 0 0 1.5 1.5.5.5 0 1 1 0 1z" fill-rule="evenodd"/></symbol><symbol viewBox="0 0 30 30" id="photo-solid"><title>photo-solid</title><path d="M9 6H4c-2.213 0-4 1.79-4 4v12a4 4 0 0 0 4 4h22c2.213 0 4-1.79 4-4V10a4 4 0 0 0-4-4h-5c0-.556-.449-1-1.002-1h-9.996C9.456 5 9 5.448 9 6zm10 2v-.495A.495.495 0 0 0 18.5 7h-7c-.27 0-.5.226-.5.505V8H3.003C2.451 8 2 8.448 2 9v1h26V9a1 1 0 0 0-1.003-1H19zm-4 15a6 6 0 1 0 0-12 6 6 0 0 0 0 12zm0-2a4 4 0 1 0 0-8 4 4 0 0 0 0 8zm0-1.5a2.5 2.5 0 0 1-2.5-2.5.5.5 0 1 1 1 0 1.5 1.5 0 0 0 1.5 1.5.5.5 0 1 1 0 1z" fill-rule="evenodd"/></symbol><symbol viewBox="0 0 30 30" id="piggy-bank"><title>piggy-bank</title><path d="M19.003 8.58C17.763 8.206 16.413 8 15 8 8.925 8 4 11.806 4 16.5c0 2.984 1.99 5.609 5 7.125v2.873a1.5 1.5 0 1 0 3 0V24.68c.954.208 1.96.32 3 .32 1.411 0 2.76-.205 4-.58v2.078a1.5 1.5 0 1 0 3 0v-3.44c1.97-1.258 3.363-3.034 3.83-5.058h1.16c.567 0 1.01-.452 1.01-1.01v-1.98c0-.567-.452-1.01-1.01-1.01h-1.473c-.733-1.842-2.254-3.418-4.259-4.491.39-1.104 1.087-1.742 1.087-1.742.36-.443.208-.767-.344-.767h-1.002c-.556 0-1.255.36-1.57.803 0 0-.35.382-.426.777zM10.73 5.545c-.71.186-1.393.417-2.048.69a4 4 0 1 1 7.186-1.213 17.297 17.297 0 0 0-2.165.027 2 2 0 1 0-2.974.496zM15 27c-.347 0-.691-.011-1.032-.033A3.506 3.506 0 0 1 10.5 30 3.502 3.502 0 0 1 7 26.495v-1.718c-2.723-1.72-4.576-4.297-4.936-7.229L.8 16.6C.358 16.269 0 15.556 0 15c0-.552.395-.785.883-.526 0 0 .776.44 1.117.526.039.01.082.018.127.024C3.016 9.924 8.44 6 15 6c1.157 0 2.28.122 3.347.351.36-.382.868-.738.868-.738C19.65 5.275 20.451 5 20.991 5h3.011c1.104 0 1.475.734.864 1.658 0 0-.69.866-1.23 1.993 1.329.955 2.414 2.126 3.17 3.446A2.498 2.498 0 0 1 30 14.51l-.001 2.982a2.499 2.499 0 0 1-2.735 2.498c-.687 1.575-1.825 2.977-3.289 4.106.016.135.024.272.024.41v1.99A3.505 3.505 0 0 1 20.5 30a3.501 3.501 0 0 1-3.48-3.126c-.658.083-1.333.126-2.02.126zm4.5-11a1.5 1.5 0 1 0 0-3 1.5 1.5 0 0 0 0 3z" fill-rule="evenodd"/></symbol><symbol viewBox="0 0 30 30" id="piggy-bank-solid"><title>piggy-bank-solid</title><path d="M17.02 26.874a16.158 16.158 0 0 1-3.052.093A3.506 3.506 0 0 1 10.5 30 3.502 3.502 0 0 1 7 26.495v-1.718c-2.723-1.72-4.576-4.297-4.936-7.229L.8 16.6C.358 16.269 0 15.556 0 15c0-.552.395-.785.883-.526 0 0 .776.44 1.117.526.039.01.082.018.127.024C3.016 9.924 8.44 6 15 6c1.157 0 2.28.122 3.347.351.36-.382.868-.738.868-.738C19.65 5.275 20.451 5 20.991 5h3.011c1.104 0 1.475.734.864 1.658 0 0-.69.866-1.23 1.993 1.329.955 2.414 2.126 3.17 3.446A2.498 2.498 0 0 1 30 14.51l-.001 2.982a2.499 2.499 0 0 1-2.735 2.498c-.687 1.575-1.825 2.977-3.289 4.106.016.135.024.272.024.41v1.99A3.505 3.505 0 0 1 20.5 30a3.501 3.501 0 0 1-3.48-3.126zM15.868 5.022a4 4 0 1 0-7.186 1.213C10.58 5.445 12.727 5 15 5c.292 0 .581.007.868.022zM19.5 16a1.5 1.5 0 1 0 0-3 1.5 1.5 0 0 0 0 3z" fill-rule="evenodd"/></symbol><symbol viewBox="0 0 30 30" id="play"><title>play</title><path d="M15 30c8.284 0 15-6.716 15-15 0-8.284-6.716-15-15-15C6.716 0 0 6.716 0 15c0 8.284 6.716 15 15 15zm0-2c7.18 0 13-5.82 13-13S22.18 2 15 2 2 7.82 2 15s5.82 13 13 13zm-3-16.991c0-1.11.752-1.508 1.672-.895l5.656 3.772c.924.615.92 1.615 0 2.228l-5.656 3.772c-.924.615-1.672.212-1.672-.895V11.01z" fill-rule="evenodd"/></symbol><symbol viewBox="0 0 30 30" id="play-solid"><title>play-solid</title><path d="M15 30c8.284 0 15-6.716 15-15 0-8.284-6.716-15-15-15C6.716 0 0 6.716 0 15c0 8.284 6.716 15 15 15zm-3-18.991c0-1.11.752-1.508 1.672-.895l5.656 3.772c.924.615.92 1.615 0 2.228l-5.656 3.772c-.924.615-1.672.212-1.672-.895V11.01z" fill-rule="evenodd"/></symbol><symbol viewBox="0 0 30 30" id="purchase"><title>purchase</title><path d="M15 30c8.284 0 15-6.716 15-15 0-8.284-6.716-15-15-15C6.716 0 0 6.716 0 15c0 8.284 6.716 15 15 15zm0-2c7.18 0 13-5.82 13-13S22.18 2 15 2 2 7.82 2 15s5.82 13 13 13zm-4-10a4.002 4.002 0 0 0 3 3.874V23a1 1 0 0 0 2 0v-1.126A4.002 4.002 0 0 0 15 14a2 2 0 1 1 2-2 1 1 0 0 0 2 0 4.002 4.002 0 0 0-3-3.874V7a1 1 0 0 0-2 0v1.126A4.002 4.002 0 0 0 15 16a2 2 0 1 1-2 2 1 1 0 0 0-2 0z" fill-rule="evenodd"/></symbol><symbol viewBox="0 0 30 30" id="purchase-solid"><title>purchase-solid</title><path d="M15 30c8.284 0 15-6.716 15-15 0-8.284-6.716-15-15-15C6.716 0 0 6.716 0 15c0 8.284 6.716 15 15 15zm-4-12a4.002 4.002 0 0 0 3 3.874V23a1 1 0 0 0 2 0v-1.126A4.002 4.002 0 0 0 15 14a2 2 0 1 1 2-2 1 1 0 0 0 2 0 4.002 4.002 0 0 0-3-3.874V7a1 1 0 0 0-2 0v1.126A4.002 4.002 0 0 0 15 16a2 2 0 1 1-2 2 1 1 0 0 0-2 0z" fill-rule="evenodd"/></symbol><symbol viewBox="0 0 30 30" id="right-arrow"><title>right-arrow</title><path d="M18.9 15.656l-3.953 3.954a.997.997 0 0 0 .004 1.41.993.993 0 0 0 1.409.005l4.962-4.962a1.995 1.995 0 0 0 0-2.815L16.36 8.286a1.003 1.003 0 0 0-1.409.006.994.994 0 0 0-.004 1.41l3.955 3.954h-8.894a1 1 0 1 0 0 2H18.9z" fill-rule="evenodd"/></symbol><symbol viewBox="0 0 30 30" id="right-chevron"><title>right-chevron</title><path d="M10.295 5.296a.993.993 0 0 1 1.409-.006l8.497 8.497a1.995 1.995 0 0 1 0 2.816L11.704 25.1c-.38.38-1.018.385-1.409-.005a.994.994 0 0 1-.004-1.41l7.727-7.782a1.02 1.02 0 0 0 0-1.42l-7.727-7.778a.997.997 0 0 1 .004-1.41z" fill-rule="evenodd"/></symbol><symbol viewBox="0 0 30 30" id="sad"><title>sad</title><path d="M2.038 14c-.025.33-.038.664-.038 1 0 7.18 5.82 13 13 13s13-5.82 13-13c0-.847-.081-1.675-.236-2.476C26.562 12.834 25.3 13 24 13c-5.107 0-9.619-2.553-12.328-6.452C10.55 10.825 6.663 13.983 2.038 14zM15 30c8.284 0 15-6.716 15-15 0-8.284-6.716-15-15-15C6.716 0 0 6.716 0 15c0 8.284 6.716 15 15 15zM9.5 18a1.5 1.5 0 1 0 0-3 1.5 1.5 0 0 0 0 3zm11 0a1.5 1.5 0 1 0 0-3 1.5 1.5 0 0 0 0 3zm-.29 5.952c.422-.29.565-.998 0-1.626A6.982 6.982 0 0 0 15 20a6.982 6.982 0 0 0-5.207 2.321c-.528.588-.38 1.343 0 1.63.423.32 1.13.122 1.413-.207A4.989 4.989 0 0 1 15 22c1.486 0 2.82.648 3.736 1.677.388.436 1.065.557 1.475.275z" fill-rule="evenodd"/></symbol><symbol viewBox="0 0 30 30" id="safe-zone"><title>safe-zone</title><path d="M15 30c8.284 0 15-6.716 15-15 0-8.284-6.716-15-15-15C6.716 0 0 6.716 0 15c0 8.284 6.716 15 15 15zm0-2c7.18 0 13-5.82 13-13S22.18 2 15 2 2 7.82 2 15s5.82 13 13 13zM5.57 12.422C4.425 10.532 5.285 9 7.505 9h14.988c2.212 0 3.084 1.524 1.937 3.422l-7.362 12.175c-1.143 1.89-2.99 1.898-4.138 0L5.569 12.422zm1.943-.555C7.23 11.388 7.445 11 8 11h13.998c.553 0 .77.39.488.867l-6.974 11.798c-.283.478-.744.476-1.026 0L7.513 11.867z" fill-rule="evenodd"/></symbol><symbol viewBox="0 0 30 30" id="safe-zone-solid"><title>safe-zone-solid</title><path d="M15 30c8.284 0 15-6.716 15-15 0-8.284-6.716-15-15-15C6.716 0 0 6.716 0 15c0 8.284 6.716 15 15 15zM5.57 12.422C4.425 10.532 5.285 9 7.505 9h14.988c2.212 0 3.084 1.524 1.937 3.422l-7.362 12.175c-1.143 1.89-2.99 1.898-4.138 0L5.569 12.422zm1.943-.555C7.23 11.388 7.445 11 8 11h13.998c.553 0 .77.39.488.867l-6.974 11.798c-.283.478-.744.476-1.026 0L7.513 11.867z" fill-rule="evenodd"/></symbol><symbol viewBox="0 0 30 30" id="search"><title>search</title><path d="M16.908 18.319A8.001 8.001 0 0 1 6.343 6.343 8 8 0 0 1 18.32 16.908l.047.043 7.067 7.068a.999.999 0 1 1-1.414 1.414l-7.068-7.067a.997.997 0 0 1-.043-.047zm-.665-2.076a6 6 0 1 1-8.486-8.486 6 6 0 0 1 8.486 8.486z" fill-rule="evenodd"/></symbol><symbol viewBox="0 0 30 30" id="settings"><title>settings</title><path d="M9.17 24a3.001 3.001 0 0 0 5.66-2h12.175c.55 0 .995.444.995 1 0 .552-.455 1-.995 1H14.829a2.995 2.995 0 0 0 .127-1.514A3 3 0 0 0 9.171 22H3.995c-.54 0-.995.448-.995 1 0 .556.446 1 .995 1h5.176zm10-8a3.001 3.001 0 0 0 5.66-2h2.175c.55 0 .995.444.995 1 0 .552-.455 1-.995 1h-2.176a2.995 2.995 0 0 0 .127-1.514A3 3 0 0 0 19.171 14H3.995c-.54 0-.995.448-.995 1 0 .556.446 1 .995 1h15.176zm-13-8a3.001 3.001 0 0 0 5.66-2h15.175c.55 0 .995.444.995 1 0 .552-.455 1-.995 1H11.829a2.995 2.995 0 0 0 .127-1.514A3 3 0 0 0 6.171 6H3.995C3.455 6 3 6.448 3 7c0 .556.446 1 .995 1h2.176zM9 8a1 1 0 1 0 0-2 1 1 0 0 0 0 2zm13 8a1 1 0 1 0 0-2 1 1 0 0 0 0 2zm-10 8a1 1 0 1 0 0-2 1 1 0 0 0 0 2z" fill-rule="evenodd"/></symbol><symbol viewBox="0 0 30 30" id="settings-solid"><title>settings-solid</title><path d="M9.17 24a3.001 3.001 0 0 0 5.66-2h12.175c.55 0 .995.444.995 1 0 .552-.455 1-.995 1H14.829a2.995 2.995 0 0 0 .127-1.514A3 3 0 0 0 9.171 22H3.995c-.54 0-.995.448-.995 1 0 .556.446 1 .995 1h5.176zm10-8a3.001 3.001 0 0 0 5.66-2h2.175c.55 0 .995.444.995 1 0 .552-.455 1-.995 1h-2.176a2.995 2.995 0 0 0 .127-1.514A3 3 0 0 0 19.171 14H3.995c-.54 0-.995.448-.995 1 0 .556.446 1 .995 1h15.176zm-13-8a3.001 3.001 0 0 0 5.66-2h15.175c.55 0 .995.444.995 1 0 .552-.455 1-.995 1H11.829a2.995 2.995 0 0 0 .127-1.514A3 3 0 0 0 6.171 6H3.995C3.455 6 3 6.448 3 7c0 .556.446 1 .995 1h2.176z" fill-rule="evenodd"/></symbol><symbol viewBox="0 0 30 30" id="sun"><title>sun</title><path d="M15 24a9 9 0 1 0 0-18 9 9 0 0 0 0 18zm0-2a7 7 0 1 0 0-14 7 7 0 0 0 0 14zm-.61-20.518A.655.655 0 0 1 14.997 1c.276 0 .548.217.607.482l.676 3.042c.12.539-.226.976-.782.976h-1.002c-.552 0-.903-.431-.782-.976l.676-3.042zm0 27.036c.059.266.339.482.607.482a.649.649 0 0 0 .607-.482l.676-3.042c.12-.539-.226-.976-.782-.976h-1.002c-.552 0-.903.431-.782.976l.676 3.042zm6.84-25.53a.655.655 0 0 1 .767-.114c.24.138.367.462.285.72l-.935 2.973c-.166.527-.684.733-1.166.455l-.868-.501c-.477-.276-.566-.826-.189-1.237l2.107-2.296zM7.713 26.402a.655.655 0 0 0 .285.72c.24.139.584.087.767-.113l2.106-2.296c.374-.407.293-.959-.189-1.237l-.868-.5c-.477-.277-.997-.079-1.165.454l-.936 2.972zm18.69-18.69a.655.655 0 0 1 .72.285.649.649 0 0 1-.113.767l-2.296 2.106c-.407.374-.959.293-1.237-.189l-.5-.868c-.277-.477-.079-.997.454-1.165l2.972-.936zM2.988 21.231a.655.655 0 0 0-.114.766c.138.24.462.367.72.285l2.973-.935c.527-.166.733-.684.455-1.166l-.501-.868c-.276-.477-.826-.566-1.237-.189l-2.296 2.107zm25.53-6.841c.266.059.482.339.482.607a.649.649 0 0 1-.482.607l-3.042.676c-.539.12-.976-.226-.976-.782v-1.002c0-.552.431-.903.976-.782l3.042.676zm-27.036 0a.655.655 0 0 0-.482.607c0 .276.217.548.482.607l3.042.676c.539.12.976-.226.976-.782v-1.002c0-.552-.431-.903-.976-.782l-3.042.676zm25.53 6.84c.201.185.248.535.114.767a.649.649 0 0 1-.72.285l-2.973-.935c-.527-.166-.733-.684-.455-1.166l.501-.868c.276-.477.826-.566 1.237-.189l2.296 2.107zM3.598 7.713a.655.655 0 0 0-.72.285.649.649 0 0 0 .113.767l2.296 2.106c.407.374.959.293 1.237-.189l.5-.868c.277-.477.079-.997-.454-1.165l-2.972-.936zm18.69 18.69a.655.655 0 0 1-.285.72.649.649 0 0 1-.767-.113l-2.106-2.296c-.374-.407-.293-.959.189-1.237l.868-.5c.477-.277.997-.079 1.165.454l.936 2.972zM8.769 2.988a.655.655 0 0 0-.766-.114.649.649 0 0 0-.285.72l.935 2.973c.166.527.684.733 1.166.455l.868-.501c.477-.276.566-.826.189-1.237L8.769 2.988z" fill-rule="evenodd"/></symbol><symbol viewBox="0 0 30 30" id="sun-solid"><title>sun-solid</title><path d="M15 22a7 7 0 1 0 0-14 7 7 0 0 0 0 14zm-.61-20.518A.655.655 0 0 1 14.997 1c.276 0 .548.217.607.482l.676 3.042c.12.539-.226.976-.782.976h-1.002c-.552 0-.903-.431-.782-.976l.676-3.042zm0 27.036c.059.266.339.482.607.482a.649.649 0 0 0 .607-.482l.676-3.042c.12-.539-.226-.976-.782-.976h-1.002c-.552 0-.903.431-.782.976l.676 3.042zm6.84-25.53a.655.655 0 0 1 .767-.114c.24.138.367.462.285.72l-.935 2.973c-.166.527-.684.733-1.166.455l-.868-.501c-.477-.276-.566-.826-.189-1.237l2.107-2.296zM7.713 26.402a.655.655 0 0 0 .285.72c.24.139.584.087.767-.113l2.106-2.296c.374-.407.293-.959-.189-1.237l-.868-.5c-.477-.277-.997-.079-1.165.454l-.936 2.972zm18.69-18.69a.655.655 0 0 1 .72.285.649.649 0 0 1-.113.767l-2.296 2.106c-.407.374-.959.293-1.237-.189l-.5-.868c-.277-.477-.079-.997.454-1.165l2.972-.936zM2.988 21.231a.655.655 0 0 0-.114.766c.138.24.462.367.72.285l2.973-.935c.527-.166.733-.684.455-1.166l-.501-.868c-.276-.477-.826-.566-1.237-.189l-2.296 2.107zm25.53-6.841c.266.059.482.339.482.607a.649.649 0 0 1-.482.607l-3.042.676c-.539.12-.976-.226-.976-.782v-1.002c0-.552.431-.903.976-.782l3.042.676zm-27.036 0a.655.655 0 0 0-.482.607c0 .276.217.548.482.607l3.042.676c.539.12.976-.226.976-.782v-1.002c0-.552-.431-.903-.976-.782l-3.042.676zm25.53 6.84c.201.185.248.535.114.767a.649.649 0 0 1-.72.285l-2.973-.935c-.527-.166-.733-.684-.455-1.166l.501-.868c.276-.477.826-.566 1.237-.189l2.296 2.107zM3.598 7.713a.655.655 0 0 0-.72.285.649.649 0 0 0 .113.767l2.296 2.106c.407.374.959.293 1.237-.189l.5-.868c.277-.477.079-.997-.454-1.165l-2.972-.936zm18.69 18.69a.655.655 0 0 1-.285.72.649.649 0 0 1-.767-.113l-2.106-2.296c-.374-.407-.293-.959.189-1.237l.868-.5c.477-.277.997-.079 1.165.454l.936 2.972zM8.769 2.988a.655.655 0 0 0-.766-.114.649.649 0 0 0-.285.72l.935 2.973c.166.527.684.733 1.166.455l.868-.501c.477-.276.566-.826.189-1.237L8.769 2.988z" fill-rule="evenodd"/></symbol><symbol viewBox="0 0 30 30" id="surprised"><title>surprised</title><path d="M2.038 14c-.025.33-.038.664-.038 1 0 7.18 5.82 13 13 13s13-5.82 13-13c0-.847-.081-1.675-.236-2.476C26.562 12.834 25.3 13 24 13c-5.107 0-9.619-2.553-12.328-6.452C10.55 10.825 6.663 13.983 2.038 14zM15 30c8.284 0 15-6.716 15-15 0-8.284-6.716-15-15-15C6.716 0 0 6.716 0 15c0 8.284 6.716 15 15 15zM9.5 18a1.5 1.5 0 1 0 0-3 1.5 1.5 0 0 0 0 3zm11 0a1.5 1.5 0 1 0 0-3 1.5 1.5 0 0 0 0 3zM15 25a2 2 0 1 0 0-4 2 2 0 0 0 0 4z" fill-rule="evenodd"/></symbol><symbol viewBox="0 0 30 30" id="ticket"><title>ticket</title><path d="M21.213 22.627l1.414 1.415 6.364-6.364a2 2 0 0 0 0-2.829L14.142 0a4 4 0 0 1-5.657 0L0 8.485a4 4 0 0 1 0 5.657l14.85 14.85a2 2 0 0 0 2.828 0l4.95-4.95-1.415-1.415-4.242 4.243a1 1 0 0 1-1.415 0l-9.9-9.9.708-.707A1 1 0 0 0 4.95 14.85l-.707.707-1.768-1.767c.707-.708.707-4.243 0-4.95l6.364-6.364c.707.707 4.242.707 4.95 0l1.767 1.768-.707.707a1 1 0 1 0 1.414 1.414l.708-.707 9.9 9.9a1 1 0 0 1 0 1.414l-5.658 5.656zm-12.02-9.192a1 1 0 0 1-1.415-1.414l.707-.707A1 1 0 1 1 9.9 12.728l-.707.707zm3.535-3.536a1 1 0 0 1-1.414-1.414l.707-.707a1 1 0 1 1 1.414 1.414l-.707.707z" fill-rule="evenodd"/></symbol><symbol viewBox="0 0 30 30" id="ticket-solid"><title>ticket-solid</title><path d="M23.763 22.329l.622.622 5.02-5.02a2.029 2.029 0 0 0 0-2.87L14.346 0a4.057 4.057 0 0 1-5.738 0L0 8.607a4.057 4.057 0 0 1 0 5.737l15.062 15.062a2.029 2.029 0 0 0 2.868 0l6.455-6.455-.622-.622zM13.627 9.324a1.014 1.014 0 0 0-1.434-1.435l-.718.718a1.014 1.014 0 0 0 1.435 1.434l.717-.717zm-3.586 3.586a1.014 1.014 0 1 0-1.434-1.435l-.718.718a1.014 1.014 0 0 0 1.435 1.434l.717-.717zm-4.986 2.125l-.707.707 1.414 1.414.707-.707a1 1 0 0 0-1.414-1.414zM15.06 5.03l.708-.708 1.414 1.415-.707.707A1 1 0 0 1 15.06 5.03z" fill-rule="evenodd"/></symbol><symbol viewBox="0 0 30 30" id="twitter"><title>twitter</title><path d="M29 7.501c-.957.425-1.985.711-3.064.84a5.35 5.35 0 0 0 2.346-2.951 10.678 10.678 0 0 1-3.388 1.294 5.334 5.334 0 0 0-9.09 4.865A15.144 15.144 0 0 1 4.81 5.977a5.309 5.309 0 0 0-.722 2.682c0 1.85.942 3.483 2.373 4.44a5.313 5.313 0 0 1-2.416-.667v.067a5.338 5.338 0 0 0 4.278 5.23 5.342 5.342 0 0 1-2.409.092 5.34 5.34 0 0 0 4.983 3.704 10.702 10.702 0 0 1-6.625 2.284c-.43 0-.855-.026-1.272-.075a15.099 15.099 0 0 0 8.177 2.397c9.811 0 15.177-8.128 15.177-15.177 0-.232-.005-.462-.016-.69A10.839 10.839 0 0 0 29 7.5" fill-rule="evenodd"/></symbol><symbol viewBox="0 0 30 30" id="unlock"><title>unlock</title><path d="M9 8a6 6 0 1 1 12 0v4c2.21 0 4 1.789 4 3.996v8.008A3.999 3.999 0 0 1 21 28H9c-2.21 0-4-1.789-4-3.996v-8.008A3.999 3.999 0 0 1 9 12h10V8a4 4 0 1 0-8 0v1c0 .552-.444 1-1 1-.552 0-1-.444-1-1V8zm7.158 12.631l.357 1.428C16.783 23.13 16.112 24 15 24c-1.105 0-1.783-.868-1.515-1.941l.357-1.428a2 2 0 1 1 2.316 0zM7 16.009C7 14.899 7.895 14 8.994 14h12.012c1.101 0 1.994.902 1.994 2.009v7.982c0 1.11-.895 2.009-1.994 2.009H8.994A2.003 2.003 0 0 1 7 23.991V16.01z" fill-rule="evenodd"/></symbol><symbol viewBox="0 0 30 30" id="unlock-solid"><title>unlock-solid</title><path d="M9 8a6 6 0 1 1 12 0v4c2.21 0 4 1.789 4 3.996v8.008A3.999 3.999 0 0 1 21 28H9c-2.21 0-4-1.789-4-3.996v-8.008A3.999 3.999 0 0 1 9 12h10V8a4 4 0 1 0-8 0v1c0 .552-.444 1-1 1-.552 0-1-.444-1-1V8zm7.158 12.631l.357 1.428C16.783 23.13 16.112 24 15 24c-1.105 0-1.783-.868-1.515-1.941l.357-1.428a2 2 0 1 1 2.316 0z" fill-rule="evenodd"/></symbol><symbol viewBox="0 0 30 30" id="up-arrow"><title>up-arrow</title><path d="M14.453 11.209l-3.954 3.953a.997.997 0 0 1-1.41-.004.993.993 0 0 1-.005-1.409l4.962-4.962a1.995 1.995 0 0 1 2.815 0l4.962 4.962c.38.38.385 1.018-.005 1.409a.994.994 0 0 1-1.41.004l-3.955-3.955v8.894a1 1 0 1 1-2 0v-8.892z" fill-rule="evenodd"/></symbol><symbol viewBox="0 0 30 30" id="up-chevron"><title>up-chevron</title><path d="M5.296 20.487a.993.993 0 0 1-.006-1.408l8.497-8.498a1.995 1.995 0 0 1 2.816 0L25.1 19.08c.38.38.385 1.018-.005 1.408a.994.994 0 0 1-1.41.005l-7.782-7.728a1.02 1.02 0 0 0-1.42 0l-7.778 7.728a.997.997 0 0 1-1.41-.005z" fill-rule="evenodd"/></symbol><symbol viewBox="0 0 30 30" id="upload"><title>upload</title><path d="M15 30c8.284 0 15-6.716 15-15 0-8.284-6.716-15-15-15C6.716 0 0 6.716 0 15c0 8.284 6.716 15 15 15zm13-15c0-7.18-5.82-13-13-13S2 7.82 2 15s5.82 13 13 13 13-5.82 13-13zm-17.178.656a.998.998 0 0 1-1.415 0 .998.998 0 0 1 0-1.414l4.952-4.951a1.001 1.001 0 0 1 1.41 0l4.951 4.951a.998.998 0 0 1 0 1.415.998.998 0 0 1-1.414 0L16 12.35v8.648a.999.999 0 1 1-2 0v-8.52l-3.178 3.178z" fill-rule="evenodd"/></symbol><symbol viewBox="0 0 30 30" id="upload-solid"><title>upload-solid</title><path d="M30 15c0-8.284-6.716-15-15-15C6.716 0 0 6.716 0 15c0 8.284 6.716 15 15 15 8.284 0 15-6.716 15-15zm-19.178.656a.998.998 0 0 1-1.415 0 .998.998 0 0 1 0-1.414l4.952-4.951a1.001 1.001 0 0 1 1.41 0l4.951 4.951a.998.998 0 0 1 0 1.415.998.998 0 0 1-1.414 0L16 12.35v8.648a.999.999 0 1 1-2 0v-8.52l-3.178 3.178z" fill-rule="evenodd"/></symbol><symbol viewBox="0 0 30 30" id="warn"><title>warn</title><path d="M12.774 3.559c1.23-2.077 3.22-2.08 4.452 0L29.473 24.24c1.23 2.076.237 3.759-2.226 3.759H2.754C.294 28-.704 26.32.528 24.24L12.774 3.56zm1.676 1.51c.304-.514.794-.517 1.1 0L27.252 24.9c.304.514.062.932-.566.932H3.314c-.616 0-.872-.414-.566-.932L14.45 5.069zm-.95 6.428c0-.827.666-1.497 1.5-1.497a1.5 1.5 0 0 1 1.5 1.497v7.006C16.5 19.33 15.834 20 15 20a1.5 1.5 0 0 1-1.5-1.497v-7.006zM15 24a1.5 1.5 0 1 0 0-3 1.5 1.5 0 0 0 0 3z" fill-rule="evenodd"/></symbol><symbol viewBox="0 0 30 30" id="warn-solid"><title>warn-solid</title><path d="M12.774 3.559c1.23-2.077 3.22-2.08 4.452 0L29.473 24.24c1.23 2.076.237 3.759-2.226 3.759H2.754C.294 28-.704 26.32.528 24.24L12.774 3.56zm.726 7.938c0-.827.666-1.497 1.5-1.497a1.5 1.5 0 0 1 1.5 1.497v7.006C16.5 19.33 15.834 20 15 20a1.5 1.5 0 0 1-1.5-1.497v-7.006zM15 24a1.5 1.5 0 1 0 0-3 1.5 1.5 0 0 0 0 3z" fill-rule="evenodd"/></symbol><symbol viewBox="0 0 30 30" id="spinner"><title>spinner</title><g class="spinner"><rect transform="translate(7.928932, 7.928932) rotate(45.000000) translate(-7.928932, -7.928932)" x="4.92893219" y="6.92893219" width="6" height="2" rx="1"></rect><rect x="2" y="14" width="6" height="2" rx="1"></rect><rect transform="translate(7.928932, 22.071068) rotate(-45.000000) translate(-7.928932, -22.071068) " x="4.92893219" y="21.0710678" width="6" height="2" rx="1"></rect><rect transform="translate(15.000000, 25.000000) rotate(90.000000) translate(-15.000000, -25.000000) " x="12" y="24" width="6" height="2" rx="1"></rect><rect transform="translate(22.071068, 22.071068) rotate(45.000000) translate(-22.071068, -22.071068) " x="19.0710678" y="21.0710678" width="6" height="2" rx="1"></rect><rect x="22" y="14" width="6" height="2" rx="1"></rect><rect transform="translate(22.071068, 7.928932) rotate(-45.000000) translate(-22.071068, -7.928932) " x="19.0710678" y="6.92893219" width="6" height="2" rx="1"></rect><rect transform="translate(15.000000, 5.000000) rotate(90.000000) translate(-15.000000, -5.000000) " x="12" y="4" width="6" height="2" rx="1"></rect></g></symbol></svg>
