<?xml version="1.0" encoding="UTF-8" standalone="no"?>
<svg width="177px" height="35px" viewBox="0 0 177 35" version="1.1" xmlns="http://www.w3.org/2000/svg" xmlns:xlink="http://www.w3.org/1999/xlink">
  <g transform="translate(-428.000000, -542.000000)" fill="#333333">
    <path d="M562.894742,570.784016 C562.894742,570.784016 557.743306,572.57893 552.743405,571.744017 C551.306149,571.504015 550.341306,570.544016 550.341306,570.544016 C550.341306,570.544016 555.129398,567.166538 555.437015,564.544015 C555.683634,562.441519 553.945514,561.365722 551.727542,561.365722 C549.509571,561.365722 547.072224,562.657482 546.785648,566.464016 C546.632328,568.500539 547.65051,570.271448 547.65051,570.271448 C547.65051,570.271448 545.53753,572.075741 542.713254,572.610168 C540.791226,572.973867 538.421227,572.467257 536.625852,571.504015 C534.424193,569.782357 534.472098,568.040637 535.774746,564.784016 C535.964991,564.308404 537.495425,559.211134 536.494748,558.544016 C534.504986,557.217509 533.105838,560.437744 532.894746,562.144016 C532.648085,564.137794 533.054237,566.150385 532.894746,568.144016 C532.891357,568.186384 528.264523,572.375977 526.654746,572.944016 C525.044969,573.512055 522.685735,573.085574 521.824178,572.224016 C518.092517,568.492356 522.334746,566.886997 522.334746,564.544016 C522.334746,564.219921 522.013182,563.104016 521.374746,563.104016 C519.563987,563.104016 519.363866,569.434896 518.014746,570.784016 C517.353547,571.445216 513.317258,574.896584 510.510861,570.544016 C507.704465,566.191448 508.210813,563.824017 507.934746,563.344016 C507.745491,563.014955 507.214749,562.711634 506.494746,563.344016 C506.238443,563.569128 506.302365,565.264015 504.479856,567.904016 C503.012389,570.029719 499.534749,573.43783 497.229733,572.944016 C494.924718,572.450201 494.575197,567.257117 494.545651,566.704016 C494.482059,565.513549 495.522018,565.315217 495.667972,565.264017 C496.466993,564.983722 497.364161,564.675042 498.303796,564.33056 C503.45201,562.443157 509.875014,559.480993 508.414746,554.224016 C507.214749,549.904016 497.853278,547.092168 490.894746,545.104016 C478.414707,541.538291 460.742412,542.509386 449.152101,545.865234 C433.923828,550.274414 428.494746,556.144016 428.494746,556.144016 C427.996582,557.197753 428.918642,557.450305 429.776855,557.197753 C430.603366,556.954531 438.781006,550.37292 450.882325,547.49292 C462.983644,544.61292 479.226113,545.020168 483.454746,545.584016 C502.644773,548.142822 506.494746,554.224016 506.494746,554.224016 C508.764972,557.629354 502.905005,560.947875 499.719724,562.144016 C499.430667,562.252563 496.713389,563.572143 495.049885,563.859553 C494.609405,563.935656 493.719364,564.087768 493.428165,563.233825 C492.174398,559.557142 493.740546,554.498416 493.534746,554.224016 C493.390746,554.032016 493.029409,554.116685 492.814746,554.224016 C492.232423,554.515177 491.827934,556.073655 491.773194,556.278931 C490.813196,559.878931 491.823865,563.824017 491.823865,563.824017 C492.100099,564.544016 491.310707,564.900232 491.220582,564.932617 C489.205895,565.656561 483.192592,567.418289 482.676574,567.563598 C482.160556,567.708908 482.014744,567.151045 482.014745,566.944016 C482.014757,557.988515 485.08914,557.133496 483.934746,556.144016 C482.657804,555.049494 479.969116,560.330985 479.969116,567.271362 C479.969116,567.967224 479.841087,568.171705 479.366699,568.283386 C473.542175,569.654602 469.09839,570.271448 467.513387,570.544016 C465.928384,570.816584 466.574746,571.344016 466.654746,571.504016 C466.775761,571.746046 476.448853,570.544016 478.292481,570.271448 C478.86147,570.187327 480.106384,569.971191 480.378295,571.504015 C480.886816,574.370652 483.136763,576.270143 485.93518,576.270143 C482.014743,574.182739 482.169921,570.443513 482.169921,569.791381 C482.169921,569.139249 482.788696,568.974609 482.788696,568.974609 C484.838382,568.462187 490.812966,566.671926 490.986511,566.62854 C491.90262,566.399512 492.249877,566.388244 492.452701,567.082397 C492.655525,567.77655 493.45905,574.624016 497.614746,574.624016 C500.031605,574.624016 504.594843,570.270763 505.534749,569.104015 C506.308103,568.144016 506.992063,566.704016 506.992063,566.704016 C506.992063,566.704016 507.610882,568.456288 507.934746,569.104016 C508.587804,570.410132 510.201302,573.385889 512.014746,573.904016 C515.005183,574.758427 517.231044,573.204332 517.534746,572.944016 C518.838937,571.826138 519.385983,571.202515 519.385983,571.202515 C519.385983,571.202515 520.237632,574.45183 523.774746,574.864016 C528.184529,575.377895 533.484738,569.584017 533.484738,569.584017 C533.484738,569.584017 534.20042,572.011103 536.62585,573.43783 C540.051729,575.131227 544.300664,574.283206 546.079471,573.214721 C547.384128,572.431046 548.872884,571.504015 548.872884,571.504015 C548.872884,571.504015 550.844441,574.996948 559.534741,573.43783 C568.225041,571.878712 573.350049,565.744017 573.694746,566.224016 C573.741564,566.289211 574.569279,567.319633 575.134747,567.664017 C578.287335,569.584017 591.947324,568.272221 593.374746,568.144016 C604.063306,567.184015 605.750831,565.157319 604.655521,565.264017 C603.560211,565.370715 601.223172,565.931835 598.174746,566.224016 C593.477812,566.6742 587.714128,566.704016 582.593503,566.704016 C574.913504,566.704016 575.134746,564.784016 575.134746,564.784016 C574.949912,564.506765 579.729457,555.565191 574.516839,558.803471 C574.407269,558.87154 574.293285,558.94499 574.174746,559.024016 C574.041618,559.112768 574.536904,562.828059 571.774746,565.264016 C567.420529,569.104015 562.894742,570.784016 562.894742,570.784016 L548.388608,566.464016 C548.388608,565.171947 549.186229,562.491633 552.443729,562.893066 C553.493832,563.126057 553.738163,563.480173 553.738163,564.544015 C553.738163,565.021609 552.573209,566.757273 551.451541,567.664016 C550.074687,568.777049 549.015744,569.584017 549.015744,569.584017 C549.015744,569.584017 548.217038,567.904016 548.388608,566.464016 L562.894742,570.784016 Z M521.176162,551.276997 C520.976379,551.421509 520.905008,551.511109 520.888724,551.614318 C520.4505,553.486397 520.522467,553.196161 522.123671,553.486397 C522.775613,553.604569 528.228516,550.710327 530.825934,549.979607 C533.66914,549.17974 539.470807,548.228898 539.470807,548.228898 C539.470807,548.228898 539.382231,547.725017 538.838315,547.680657 C537.509335,547.572267 533.453552,548.02063 529.426148,548.744904 C527.454758,549.099432 522.623779,550.507263 521.176162,551.276997 Z"></path>
  </g>
</svg>

