<?xml version="1.0" encoding="UTF-8" standalone="no"?>
<svg width="80px" height="41px" viewBox="0 0 80 41" version="1.1" xmlns="http://www.w3.org/2000/svg" xmlns:xlink="http://www.w3.org/1999/xlink">
  <g transform="translate(-1.000000, 0.000000)" fill="#333333">
    <path d="M62.3957531,25.1901854 C64.2774743,22.7895949 65.1409848,22.225702 65.609132,22.897461 C66.1892648,23.7299114 66.8370972,23.1650616 65.609132,25.5168446 C65.404231,25.9092891 65.0459636,27.2069899 64.846925,28.1003416 C64.6385678,29.0355183 64.4169734,30.6537709 64.4201672,31.2068761 C64.4542384,37.1136704 70.6980413,41.1117466 75.3894055,38.7687982 C78.0692992,37.4303849 79.1734754,35.6022442 79.3901379,33.3474076 C79.6032332,31.1296427 79.0837967,29.4865116 80.2331513,30.6358661 C80.8025278,31.2052427 80.9887195,31.8798667 80.9774847,33.3324287 C80.9487808,37.0361601 78.050035,39.54655 73.7580578,40.5070792 C69.6973117,41.4158347 65.7509412,39.1830479 64.0156262,35.5168457 C61.7053234,30.6358665 64.57776,25.5168441 64.0156262,25.5168443 C63.4534924,25.5168446 58.3752119,33.6884766 58.0120631,34.3019591 C57.6488809,34.9154416 56.9013137,35.8879724 56.3508063,36.4631498 C55.4421841,37.4124774 55.2394902,37.4704185 54.1525774,37.0915009 C53.4940555,36.8619367 53.4603649,36.4479505 53.3437493,36.144043 C53.1338713,35.5970625 53.8856237,31.5871141 54.5114758,29.9813452 C54.5254887,29.9254476 55.5217818,27.2868216 55.8415539,25.9226323 C55.9285623,25.551443 55.9768829,25.1487418 55.9774449,24.7727682 C55.979502,23.3963794 55.3415013,22.3781911 53.6184075,24.5755844 C52.9368003,25.4448111 49.7645505,31.2082713 48.3803704,34.850585 C47.7814885,36.426475 48.7785298,36.4139346 48.0407707,36.8256827 C46.6806633,37.5847674 46.0241364,36.7742177 45.9738762,36.4631491 C45.6455026,34.430792 48.3803704,27.3260672 48.3803704,23.9420326 C48.3803704,23.4295142 47.3885491,22.2657471 42.7994377,29.9813455 C41.0902218,32.8550225 39.8512061,34.4397773 38.0583498,34.8505853 C33.9072268,35.8017572 34.8796389,28.5205081 34.8796389,28.5205081 C34.8796389,28.5205081 32.9780727,30.5379795 32.2416309,31.2068762 C28.2299807,34.8505855 23.6811524,38.1539617 22.6282048,37.35767 C21.5360713,36.5317441 22.8852539,35.516846 25.109375,34.8505853 C26.4213667,34.0690768 29.2071598,32.0277063 30.3063967,31.2068761 C34.0837405,28.3862306 35.0573733,25.7816395 36.0480959,23.5717774 C37.0388186,21.3619153 37.2758745,19.7995422 38.7109675,20.5675455 C39.4677026,20.9725666 38.0918822,23.2706423 37.4902346,23.9420326 C37.079446,24.4004609 36.1219829,27.645198 35.7907717,29.9813455 C35.6222157,31.170372 36.2763684,34.6376577 38.0583498,33.6831058 C39.8403313,32.7285538 41.2371331,30.4935753 42.7994377,28.1003416 C42.8634589,28.0022712 47.094638,20.8670238 49.062011,21.9245606 C50.3794249,22.6327201 50.0358238,22.5300761 49.9250089,24.5755845 C49.856319,25.843778 47.7988163,32.0541139 48.0407707,32.2337475 C48.2933129,32.4212418 50.8587603,26.5290797 51.4276776,25.5168444 C52.771825,23.1252228 54.9074073,21.1950683 56.4379132,21.1950683 C57.9582093,21.1950684 58.367284,22.9333475 57.1723645,25.5168446 C55.9774449,28.1003416 54.1304408,34.8566427 54.9177754,35.1928714 C56.4379132,35.8420413 57.8824475,30.9479983 62.3957531,25.1901854 Z M23.3110346,2.73486326 C23.2886572,2.88560929 23.252507,3.30332852 23.154775,3.76037607 C23.0315523,4.33663214 23.1309861,4.82264951 22.0168451,5.06433115 C18.098731,5.91425609 6.95996083,8.73908005 4.27441395,8.6608888 C1.83635811,8.5899034 0.97796,8.56176435 0.97796,9.65181093 C0.97796,10.7583004 4.69435958,10.6871501 11.3683571,9.06506526 C13.0837753,8.648151 18.3482613,7.46405849 20.1409906,6.93688974 C21.93372,6.409721 22.407641,6.61778773 22.0168451,7.52355966 C20.8789152,10.1610108 18.8101946,15.4188376 16.9550785,20.7746579 C16.488149,22.1227058 11.6559764,35.9727205 12.322266,36.7089862 C12.753524,37.1855169 12.427033,37.1391407 13.0249134,37.0694646 C13.8778614,36.9701179 14.0125795,36.7429874 14.2097394,35.0719627 C14.4420706,33.1026312 15.9107681,27.8767284 17.2300789,24.3251175 C17.6538025,23.1844307 22.3028724,10.5103594 22.8877844,9.065065 C22.8877844,9.065065 23.5545334,7.51789284 23.877685,6.71472177 C23.9935012,6.42686841 24.4716791,5.83722124 25.3549283,5.68211939 C26.2381775,5.52701755 41.1039227,2.53858771 43.2111727,2.37086515 C44.9595745,2.23171311 45.1494154,0.954589793 44.1718763,0.95458984 C43.1943373,0.954589887 27.4272455,3.94055185 26.2967523,4.08996591 C25.1662592,4.23937998 25.1662592,3.68269541 25.1662592,2.73486322 C25.1662592,1.65248433 23.4495865,1.80157108 23.3110346,2.73486326 Z M40.0200436,13.9367872 C41.6944354,14.7313273 42.9915432,14.5811738 43.1168267,13.5782723 C43.1526421,13.2916012 42.965758,12.7203923 42.965758,12.7203923 C42.965758,12.7203923 40.9563159,11.3024972 40.0200435,12.2387696 C40.0200435,12.2387696 38.615088,13.2700642 40.0200436,13.9367872 Z"></path>
  </g>
</svg>
